<?xml version="1.0" standalone="no"?>
<!DOCTYPE svg PUBLIC "-//W3C//DTD SVG 1.1//EN" "http://www.w3.org/Graphics/SVG/1.1/DTD/svg11.dtd" >
<svg xmlns="http://www.w3.org/2000/svg">
<metadata>Generated by IcoMoon</metadata>
<defs>
<font id="icomoon" horiz-adv-x="1024">
<font-face units-per-em="1024" ascent="960" descent="-64" />
<missing-glyph horiz-adv-x="1024" />
<glyph unicode="&#x20;" horiz-adv-x="512" d="" />
<glyph unicode="&#xe900;" glyph-name="additional-round-0" d="M256 426.667h42.667c23.564 0 42.667-19.103 42.667-42.667v-256c0-23.564-19.103-42.667-42.667-42.667h-42.667c-23.564 0-42.667 19.103-42.667 42.667v256c0 23.564 19.103 42.667 42.667 42.667zM469.333 597.334h42.667c23.564 0 42.667-19.103 42.667-42.667v-426.667c0-23.564-19.103-42.667-42.667-42.667h-42.667c-23.564 0-42.667 19.103-42.667 42.667v426.667c0 23.564 19.103 42.667 42.667 42.667zM682.667 768h42.667c23.564 0 42.667-19.103 42.667-42.667v-597.333c0-23.564-19.103-42.667-42.667-42.667h-42.667c-23.564 0-42.667 19.103-42.667 42.667v597.333c0 23.564 19.103 42.667 42.667 42.667z" />
<glyph unicode="&#xe901;" d="M298.667 426.667h-42.667c-23.564 0-42.667-19.102-42.667-42.667v-256c0-23.565 19.103-42.667 42.667-42.667h42.667c23.564 0 42.667 19.102 42.667 42.667v256c0 23.565-19.103 42.667-42.667 42.667z" />
<glyph unicode="&#xe902;" d="M682.667 768c-23.565 0-42.667-19.103-42.667-42.667v-597.333c0-23.565 19.102-42.667 42.667-42.667h42.667c23.565 0 42.667 19.102 42.667 42.667v597.333c0 23.564-19.102 42.667-42.667 42.667h-42.667zM469.333 597.334c-23.565 0-42.667-19.102-42.667-42.667v-426.667c0-23.565 19.102-42.667 42.667-42.667h42.667c23.565 0 42.667 19.102 42.667 42.667v426.667c0 23.564-19.102 42.667-42.667 42.667h-42.667z" />
<glyph unicode="&#xe903;" d="M469.333 597.334h42.667c23.565 0 42.667-19.102 42.667-42.667v-426.667c0-23.565-19.102-42.667-42.667-42.667h-42.667c-23.565 0-42.667 19.102-42.667 42.667v426.667c0 23.564 19.102 42.667 42.667 42.667zM256 426.667h42.667c23.564 0 42.667-19.102 42.667-42.667v-256c0-23.565-19.103-42.667-42.667-42.667h-42.667c-23.564 0-42.667 19.102-42.667 42.667v256c0 23.565 19.103 42.667 42.667 42.667z" />
<glyph unicode="&#xe904;" d="M725.333 768h-42.667c-23.565 0-42.667-19.103-42.667-42.667v-597.333c0-23.565 19.102-42.667 42.667-42.667h42.667c23.565 0 42.667 19.102 42.667 42.667v597.333c0 23.564-19.102 42.667-42.667 42.667z" />
<glyph unicode="&#xe905;" glyph-name="additional-round-3" d="M256 426.667h42.667c23.564 0 42.667-19.103 42.667-42.667v-256c0-23.564-19.103-42.667-42.667-42.667h-42.667c-23.564 0-42.667 19.103-42.667 42.667v256c0 23.564 19.103 42.667 42.667 42.667zM469.333 597.334h42.667c23.564 0 42.667-19.103 42.667-42.667v-426.667c0-23.564-19.103-42.667-42.667-42.667h-42.667c-23.564 0-42.667 19.103-42.667 42.667v426.667c0 23.564 19.103 42.667 42.667 42.667zM682.667 768h42.667c23.564 0 42.667-19.103 42.667-42.667v-597.333c0-23.564-19.103-42.667-42.667-42.667h-42.667c-23.564 0-42.667 19.103-42.667 42.667v597.333c0 23.564 19.103 42.667 42.667 42.667z" />
<glyph unicode="&#xe906;" glyph-name="advance-0" d="M573.205 530.523c13.329-13.33 34.944-13.33 48.273 0l103.863 103.864 103.863-103.864c13.329-13.33 34.944-13.33 48.273 0s13.329 34.942 0 48.272l-103.863 103.864 103.863 103.864c13.329 13.33 13.329 34.942 0 48.272s-34.944 13.33-48.273 0l-103.863-103.864-103.863 103.864c-13.329 13.33-34.944 13.33-48.273 0s-13.329-34.942 0-48.272l103.863-103.864-103.863-103.864c-13.329-13.33-13.329-34.942 0-48.272zM529.638 494.315c-27.921 27.922-32.448 70.377-13.581 103.011h-430.724c-47.128 0-85.333-38.205-85.333-85.334v-256c0-47.13 38.205-85.333 85.333-85.333h512c47.13 0 85.333 38.204 85.333 85.333v256c0 4.628-0.367 9.169-1.075 13.596l-31.27-31.273c-33.327-33.323-87.356-33.323-120.683 0zM469.333 383.992c0-70.69-57.308-128-128-128s-128 57.31-128 128c0 70.694 57.308 128 128 128s128-57.306 128-128zM853.333 405.325c0 23.565-19.102 42.667-42.667 42.667s-42.667-19.102-42.667-42.667v-277.333c0-23.565-19.102-42.667-42.667-42.667h-597.333c-23.564 0-42.667-19.102-42.667-42.667s19.103-42.667 42.667-42.667h597.333c70.694 0 128 57.31 128 128v277.333z" />
<glyph unicode="&#xe907;" glyph-name="advance-1" d="M85.333 640v-256c0-47.13 38.205-85.333 85.333-85.333h512c47.13 0 85.333 38.204 85.333 85.333v256c0 47.128-38.204 85.333-85.333 85.333h-512c-47.128 0-85.333-38.205-85.333-85.333zM554.667 512c0-70.694-57.306-128-128-128-70.692 0-128 57.306-128 128 0 70.692 57.308 128 128 128 70.694 0 128-57.308 128-128zM938.667 533.334v-277.333c0-70.694-57.306-128-128-128h-597.333c-23.564 0-42.667 19.102-42.667 42.667s19.103 42.667 42.667 42.667h597.333c23.565 0 42.667 19.102 42.667 42.667v277.333c0 23.564 19.102 42.667 42.667 42.667s42.667-19.103 42.667-42.667z" />
<glyph unicode="&#xe908;" glyph-name="advance-2" d="M1024 682.667c0 141.379-114.598 256-256 256s-256-114.621-256-256c0-141.379 114.598-256 256-256s256 114.621 256 256zM960 682.667c0-106.036-85.948-192-192-192s-192 85.964-192 192c0 106.036 85.948 192 192 192s192-85.964 192-192zM757.333 810.667c17.673 0 32-14.327 32-32v-74.667h74.667c17.673 0 32-14.327 32-32s-14.327-32-32-32h-106.667c-17.673 0-32 14.327-32 32v106.667c0 17.673 14.327 32 32 32zM437.419 597.334h-352.085c-47.128 0-85.333-38.205-85.333-85.333v-256c0-47.13 38.205-85.333 85.333-85.333h512c47.13 0 85.333 38.204 85.333 85.333v96.085c-119.945 30.874-214.374 125.303-245.248 245.248zM768 128c0-23.565-19.102-42.667-42.667-42.667h-597.333c-23.564 0-42.667-19.102-42.667-42.667s19.103-42.667 42.667-42.667h597.333c70.694 0 128 57.306 128 128v224.085c-27.273-7.019-55.868-10.752-85.333-10.752v-213.333zM469.333 384c0-70.694-57.308-128-128-128s-128 57.306-128 128c0 70.694 57.308 128 128 128s128-57.306 128-128z" />
<glyph unicode="&#xe909;" glyph-name="advance-3" d="M986.24 791.345c13.649 16.735 10.496 40.862-7.031 53.889-17.532 13.027-42.807 10.021-56.457-6.714l-179.021-229.193-119.573 121.020c-15.245 15.428-40.704 16.139-56.866 1.588s-16.905-38.854-1.664-54.282l151.765-153.6c8.055-8.153 19.439-12.539 31.168-12.009s22.626 5.926 29.837 14.769l207.842 264.532zM85.333 597.334c-47.128 0-85.333-38.205-85.333-85.333v-256c0-47.13 38.205-85.333 85.333-85.333h512c47.13 0 85.333 38.204 85.333 85.333v209.562l-137.711 131.772h-459.622zM469.333 384c0-70.694-57.308-128-128-128s-128 57.306-128 128c0 70.694 57.308 128 128 128s128-57.306 128-128zM768 405.334c0 11.465 4.523 21.875 11.883 29.542 4.113 2.351 7.91 5.175 11.294 8.422 5.841 3.004 12.467 4.702 19.49 4.702 23.565 0 42.667-19.102 42.667-42.667v-277.333c0-70.694-57.306-128-128-128h-597.333c-23.564 0-42.667 19.102-42.667 42.667s19.103 42.667 42.667 42.667h597.333c23.565 0 42.667 19.102 42.667 42.667v277.333z" />
<glyph unicode="&#xe90a;" glyph-name="advance-4" d="M815.573 791.345c13.649 16.735 10.496 40.862-7.031 53.889-17.532 13.027-42.807 10.021-56.457-6.714l-179.021-229.193-119.573 121.020c-15.245 15.428-40.703 16.139-56.865 1.588s-16.907-38.854-1.663-54.282l151.764-153.6c8.055-8.153 19.439-12.539 31.168-12.009s22.626 5.926 29.837 14.769l207.842 264.532zM1015.514 791.345c13.649 16.735 10.5 40.862-7.031 53.889s-42.807 10.021-56.452-6.714l-179.025-229.193-5.751 5.821c-15.245 15.428-40.704 16.139-56.866 1.588s-16.905-38.854-1.66-54.282l37.939-38.4c8.055-8.153 19.439-12.539 31.168-12.009s22.626 5.926 29.841 14.769l207.838 264.532zM85.333 597.334c-47.128 0-85.333-38.205-85.333-85.333v-256c0-47.13 38.205-85.333 85.333-85.333h512c47.13 0 85.333 38.204 85.333 85.333v256c0 1.802-0.055 3.591-0.166 5.365l-58.449-70.33c-10.487-12.16-26.338-19.58-43.396-20.309-17.054-0.73-33.613 5.303-45.329 16.512l-161.038 154.095h-288.955zM469.333 384c0-70.694-57.308-128-128-128s-128 57.306-128 128c0 70.694 57.308 128 128 128s128-57.306 128-128zM853.333 405.334c0 23.565-19.102 42.667-42.667 42.667s-42.667-19.102-42.667-42.667v-277.333c0-23.565-19.102-42.667-42.667-42.667h-597.333c-23.564 0-42.667-19.102-42.667-42.667s19.103-42.667 42.667-42.667h597.333c70.694 0 128 57.306 128 128v277.333z" />
<glyph unicode="&#xe90b;" glyph-name="aglomeration" horiz-adv-x="951" d="M81.627 752.226c-67.95 69.486-18.725 186.441 78.482 186.441h681.033c60.594 0 109.714-49.121 109.714-109.714v0-57.929c0-40.396-32.747-73.143-73.143-73.143s-73.143 32.747-73.143 73.143v0 21.358h-557.568l282.551-288.987c19.35-19.766 31.291-46.852 31.291-76.727s-11.941-56.961-31.31-76.746l0.019 0.019-282.551-288.987h557.568v24.357c0 40.396 32.747 73.143 73.143 73.143s73.143-32.747 73.143-73.143v0-60.928c0-60.594-49.121-109.714-109.714-109.714v0h-680.96c-97.28 0-146.505 116.955-78.555 186.441l318.318 325.559-318.318 325.559z" />
<glyph unicode="&#xe90c;" glyph-name="airplane-sm" d="M450.182 48.318c5.12-6.554 12.841-10.323 21.156-10.323 4.178 0 8.397 0.922 12.677 2.81l31.928 14.272c24.044 10.714 49.398 43.379 61.030 68.608l152.371 329.687c291.475 136.479 305.050 165.499 292.352 194.089-14.643 32.748-66.97 65.925-138.605 65.925-35.456 0-71.558-8.069-107.315-23.982l-578.625-258.089c-1.7-0.778-3.133-1.147-4.362-1.147-4.813 0-13.148 6.164-20.541 11.653-27.689 20.378-67.891 50.074-80.527 59.884-9.544 7.311-22.753 11.325-37.191 11.325-21.279 0-39.404-8.335-48.456-22.282-7.393-11.366-8.090-25.17-1.987-38.83l72.417-162.383c8.827-19.789 31.683-43.36 90.296-43.36 66.724 0 170.353 30.477 299.643 88.106l27.218 12.165-46.961-250.204c-5.612-22.49-4.506-37.702 3.482-47.923zM320.77 531.258l-94.372 57.18c-13.824 7.332-33.444 20.091-32.788 39.875 0.389 10.588 6.902 19.702 17.428 24.392l31.99 14.254c12.861 5.734 29.307 6.943 40.837 6.943 17.428 0 35.533-2.621 51.016-7.373l171.54-52.449-185.651-82.821z" />
<glyph unicode="&#xe90d;" glyph-name="airplane" horiz-adv-x="1536" d="M1044.486 831.434c-57.53-24.887-131.366-56.803-199.104-86.012l-331.101 98.195c-24.652 7.269-50.958 10.376-75.464 10.734-24.222 0.355-48.356-1.569-71.58-11.489l-46.891-19.9c-9.283-4.009-24.219-11.921-32.423-29.546-8.085-17.369-5.587-37.165 1.256-50.538 11.47-22.415 30.051-33.816 49.864-44.145l0.559-0.539 167.201-98.131c-88.336-38.129-188.324-81.343-204.997-88.568-0.285 0.134-0.629 0.301-1.034 0.509-1.181 0.606-2.692 1.455-4.545 2.58-3.711 2.256-8.367 5.367-13.841 9.299l-0.072 0.052c-13.567 9.654-29.171 20.69-44.595 31.598-31.124 22.013-61.542 43.527-72.948 52.075l-0.136 0.1c-33.261 24.483-72.041 23.95-104.507 13.725-16.477-5.21-35.889-14.767-48.939-35.183-13.386-20.941-14.781-49.8-4.084-72.866 9.398-20.356 28.268-60.616 48.056-102.836l4.025-8.588c21.247-45.334 42.89-91.535 54.616-116.972 15.791-34.234 48.109-56.378 84.961-65.805 36.179-9.254 78.393-8.576 126.291-2.24 96.41 12.87 224.579 52.832 384.237 121.5l6.24 2.684-62.534-318.692v-1.274c-5.261-21.018-9.114-42.496 0.544-65.862l0.058-0.141c5.965-14.118 19.712-28.077 37.446-33.606 17.645-5.504 32.704-1.99 43.29 2.426l46.989 19.942c23.309 10.022 41.498 26.963 57.35 44.608 16.205 18.035 31.635 39.776 42.419 62.438l13.286 27.91h-0.851l206.291 430.542c108.832 49.24 213.498 98.377 290.586 140.354 40.352 22.013 74.278 42.442 98.886 61.192 12.461 9.495 22.906 18.883 31.898 30.943 8.749 11.729 22.4 36.326 9.555 64.11-22.253 48.047-75.84 80.158-141.498 95.667-25.126 5.878-51.987 9.111-81.478 8.636-10.042-0.124-20.723-0.975-30.509-1.884-40.896-3.664-85.626-13.474-131.347-33.099l-101.427-43.905zM298.98 420.766c14.701-5.228 19.895-7.076 37.828 0.707l2.726 0.9c3.173 1.345 22.172 9.572 50.888 22.008l0.060 0.026c56.003 24.252 148.916 64.486 233.523 100.909 0 0 90.657 38.776 128.954 55.286 28.058 12.097 57.037 24.589 104.87 45.156l0.096 0.029 25.536 10.762c68.077 29.232 143.040 61.391 201.274 86.366l100.922 43.275c36.090 15.472 70.458 23.734 100.704 26.48 7.373 0.616 14.509 0.829 21.702 0.829 21.325 0 40.89-2.623 58.24-6.704 25.325-5.958 43.584-15.587 55.514-24.344-17.818-12.765-44.89-29.249-79.091-47.829-76.864-41.82-185.651-93.122-299.987-144.654l-16.902-7.412-7.75-16.44-227.475-474.923c-6.086-12.845-15.443-27.059-25.869-38.624-2.259-2.502-4.621-4.864-6.963-7.040l71.488 367.473 18.829 90.784-86.874-37.406c-13.978-6.035-27.571-11.94-40.787-17.681-17.581-7.639-34.534-15.004-50.912-22.031-155.325-66.758-275.574-103.315-357.094-114.141-40.721-5.471-70.623-3.978-88.080 0.468-9.046 2.304-13.816 4.701-16.412 6.556-2.223 1.588-3.38 3.137-4.396 5.321l-17.144 20.367c-16.045 34.612-38.442 77.356-57.718 114.145-14.795 28.237-27.753 52.968-34.591 67.821l-0.411 0.893c-0.326 0.787-0.539 0.805-0.717 0.821l-0.219 0.081c1.053 0.79 3.042 1.919 5.616 2.708 1.625 0.516 3.466 0.851 5.424 1.039 0.449 0.043 0.905 0.079 1.366 0.107 1.784 0.11 3.644 0.111 5.508 0.031 0.794-0.035 1.59-0.084 2.38-0.146 6.169-0.484 12.074-1.749 15.178-2.836 0.62-0.217 1.127-0.427 1.503-0.622 0.188-0.098 0.344-0.191 0.463-0.281v0.903l1.214-0.903c4.535-3.368 10.828-7.983 18.311-13.436 13.561-9.882 33.030-22.306 52.984-35.039 19.171-12.234 38.792-24.755 54.050-35.581l3.512-2.504c10.822-7.738 22.065-15.776 36.735-20.968l1.993-0.707zM437.24 757.53c16.79-0.32 34.532-2.358 48.148-6.413l221.447-65.101-29.53-12.683c-16.038-6.884-32.57-13.979-58.641-25.204l-186.812 109.398c1.765 0.036 3.566 0.039 5.388 0.004z" />
<glyph unicode="&#xe90e;" glyph-name="alert-xs" d="M512 42.667c-212.077 0-384 171.923-384 384s171.923 384 384 384c212.077 0 384-171.923 384-384s-171.923-384-384-384zM512-85.333c282.77 0 512 229.23 512 512s-229.23 512-512 512c-282.77 0-512-229.23-512-512s229.23-512 512-512zM426.667 682.667c0 47.128 38.205 85.333 85.333 85.333s85.333-38.205 85.333-85.333v-256c0-47.128-38.205-85.333-85.333-85.333s-85.333 38.205-85.333 85.333v256zM426.667 170.667c0 47.128 38.205 85.333 85.333 85.333s85.333-38.205 85.333-85.333c0-47.128-38.205-85.333-85.333-85.333s-85.333 38.205-85.333 85.333z" />
<glyph unicode="&#xe90f;" glyph-name="alert" d="M512 13.775c232.486 0 420.955 188.468 420.955 420.955s-188.468 420.955-420.955 420.955c-232.486 0-420.955-188.469-420.955-420.955s188.469-420.955 420.955-420.955zM1014.929 434.73c0-277.76-225.169-502.929-502.929-502.929s-502.929 225.169-502.929 502.929c0 277.76 225.169 502.929 502.929 502.929s502.929-225.169 502.929-502.929zM552.986 644.704v-251.969c0-22.637-18.349-40.988-40.986-40.988s-40.986 18.351-40.986 40.988v251.969c0 22.635 18.349 40.986 40.986 40.986s40.986-18.351 40.986-40.986zM552.986 224.756c0-22.635-18.349-40.986-40.986-40.986s-40.986 18.351-40.986 40.986c0 22.637 18.349 40.988 40.986 40.988s40.986-18.351 40.986-40.988z" />
<glyph unicode="&#xe910;" glyph-name="arrow" d="M782.858 375.974l-440.304-440.29c-28.009-28.022-73.42-28.022-101.415 0-27.997 27.997-27.997 73.406 0 101.401l389.601 389.589-389.589 389.576c-27.997 28.009-27.997 73.413 0 101.41 27.997 28.009 73.406 28.009 101.415 0l440.304-440.297c13.999-14.005 20.99-32.342 20.99-50.687 0-18.354-7.005-36.704-21.001-50.703z" />
<glyph unicode="&#xe911;" glyph-name="attach" d="M554.667 213.334c0 51.972 0.004 140.028 0 192 0 0 0 42.667 42.667 42.667s42.667-42.667 42.667-42.667v-192c0 0 0-128-128-128-127.998 0-127.998 128-127.998 128v426.667c0 0 0 128 127.998 128 128 0 128-128 128-128s0-42.667 42.667-42.667c42.667 0 42.667 42.667 42.662 40.9-0.043 129.766-85.329 215.1-213.329 215.1-127.998 0-213.337-103.086-213.332-216.684 0.007-131.596-0.006-291.72 0-423.316 0 0 0-213.333 213.332-213.333s212.894 213.333 212.894 213.333c0.529 62.379 0.401 128 0.004 192 0 0 0.435 128-127.565 128s-128-128-128-128c-0.307-57.826 0-134.174 0-192 0 0 0-42.667 42.667-42.667s42.667 42.667 42.667 42.667z" />
<glyph unicode="&#xe912;" glyph-name="auction-first-approve" d="M512 170.667c188.514 0 341.333 152.819 341.333 341.333s-152.819 341.333-341.333 341.333c-188.513 0-341.333-152.82-341.333-341.333s152.82-341.333 341.333-341.333zM938.667 512c0-221.239-168.393-403.153-384-424.559v-130.108c0-23.565-19.102-42.667-42.667-42.667s-42.667 19.102-42.667 42.667v130.108c-215.608 21.406-384 203.319-384 424.559 0 235.642 191.025 426.667 426.667 426.667 235.639 0 426.667-191.025 426.667-426.667zM512 298.667c23.565 0 42.667 19.102 42.667 42.667v344.538c0 21.794-17.668 39.462-39.462 39.462-17.161 0-32.299-11.258-41.165-25.951-11.375-18.858-29.867-40.968-55.477-52.137-17.999-7.851-34.562-23.164-34.562-42.801s15.919-35.556 35.555-35.556h49.778v-227.555c0-23.565 19.102-42.667 42.667-42.667z" />
<glyph unicode="&#xe913;" glyph-name="auction" d="M510.703 871.185c-13.709 13.705-35.925 13.705-49.634 0v0.144l-259.842-259.987c-13.705-13.705-13.705-35.926 0-49.631l2.597-2.597c13.705-13.705 35.926-13.705 49.631 0l169.382-169.383-354.056-354.052c-14.423-14.426-14.423-37.807 0-52.228 14.423-14.426 37.806-14.426 52.228 0l354.054 354.052 169.382-169.378c-13.705-13.709-13.705-35.93 0-49.634l1.297-1.297c14.426-14.421 37.807-14.421 52.228 0l257.246 257.246c14.426 14.421 14.426 37.807 0 52.228l-1.297 1.297c-13.705 13.709-35.925 13.709-49.63 0l-390.993 390.992c13.709 13.705 13.709 35.926 0 49.632l-2.594 2.597zM461.069 766.728l58.577-58.576-155.386-155.386-58.577 58.576 155.385 155.386zM571.874 655.923l169.382-169.382-155.388-155.383-169.38 169.378 155.386 155.387zM793.485 434.313l58.577-58.577-155.388-155.383-58.577 58.577 155.388 155.383z" />
<glyph unicode="&#xe914;" glyph-name="barcode" d="M85.333 682.667c0 47.128 38.205 85.333 85.333 85.333h682.667c47.13 0 85.333-38.205 85.333-85.333v-512c0-47.13-38.204-85.333-85.333-85.333h-682.667c-47.128 0-85.333 38.204-85.333 85.333v512zM853.333 682.667h-682.667v-512h682.667v512zM256 597.334h42.667v-341.333h-42.667v341.333zM341.333 597.334h85.333v-341.333h-85.333v341.333zM469.333 597.334h85.333v-341.333h-85.333v341.333zM597.333 597.334h42.667v-341.333h-42.667v341.333zM682.667 597.334h85.333v-341.333h-85.333v341.333z" />
<glyph unicode="&#xe915;" glyph-name="battery_level" d="M101.5 682.667c-55.5 0-101.5-46-101.5-101.5v-308.748c0-55.753 46-101.751 101.5-101.751h692.748c55.753 0 101.751 45.999 101.751 101.751v26.249h64c34.999 0 64 29.001 64 64v128c0 35-29.001 64-64 64h-64v26.5c0 55.5-45.999 101.5-101.751 101.5h-692.748zM101.5 618.667h692.748c21.252 0 37.751-16.5 37.751-37.5v-308.748c0-21.252-16.499-37.751-37.751-37.751h-692.748c-21 0-37.5 16.499-37.5 37.751v308.748c0 21 16.5 37.5 37.5 37.5zM128 554.667v-256h64v256h-64zM896 490.667h64v-128h-64v128zM256 298.667v256h64v-256h-64zM512 298.667v256h64v-256h-64zM384 298.667v256h64v-256h-64z" />
<glyph unicode="&#xe916;" glyph-name="battery" d="M101.5 682.667c-55.5 0-101.5-46-101.5-101.5v-308.748c0-55.753 46-101.751 101.5-101.751h692.748c55.753 0 101.751 45.999 101.751 101.751v26.249h64c34.999 0 64 29.001 64 64v128c0 35-29.001 64-64 64h-64v26.5c0 55.5-45.999 101.5-101.751 101.5h-692.748zM101.5 618.667h692.748c21.252 0 37.751-16.5 37.751-37.5v-308.748c0-21.252-16.499-37.751-37.751-37.751h-692.748c-21 0-37.5 16.499-37.5 37.751v308.748c0 21 16.5 37.5 37.5 37.5zM448 554.667l-256-128h192l64-128 256 128h-192l-64 128zM896 490.667h64v-128h-64v128z" />
<glyph unicode="&#xe917;" d="M512-0c46.933 0 85.333 38.4 85.333 85.333h-170.667c0-46.933 38.4-85.333 85.333-85.333zM768 256v213.333c0 130.987-69.547 240.64-192 269.653v29.013c0 35.413-28.587 64-64 64s-64-28.587-64-64v-29.013c-122.027-29.013-192-138.24-192-269.653v-213.333l-85.333-85.333v-42.667h682.667v42.667l-85.333 85.333zM682.667 213.334h-341.333v256c0 105.813 64.427 192 170.667 192s170.667-86.187 170.667-192v-256z" />
<glyph unicode="&#xe918;" d="M938.667 725.334c0-70.692-57.308-128-128-128s-128 57.308-128 128c0 70.692 57.308 128 128 128s128-57.308 128-128z" />
<glyph unicode="&#xe919;" glyph-name="bell" d="M512-0c46.933 0 85.333 38.4 85.333 85.333h-170.667c0-46.933 38.4-85.333 85.333-85.333zM768 256v213.333c0 130.987-69.547 240.64-192 269.653v29.013c0 35.413-28.587 64-64 64s-64-28.587-64-64v-29.013c-122.027-29.013-192-138.24-192-269.653v-213.333l-85.333-85.333v-42.667h682.667v42.667l-85.333 85.333zM682.667 213.334h-341.333v256c0 105.813 64.427 192 170.667 192s170.667-86.187 170.667-192v-256z" />
<glyph unicode="&#xe91a;" glyph-name="blind-auction" d="M179.485 819.503l725.356-725.333-60.339-60.339-108.732 108.732c-61.478-34.001-135.62-57.229-223.765-57.229-323.072 0-460.202 311.253-465.877 324.523l-7.211 16.811 7.211 16.811c3.448 8.081 56.25 126.967 170.22 218.487l-97.201 97.197 60.339 60.341zM671.876 206.452l-73.429 73.429c-25.293-15.147-54.81-23.881-86.447-23.881-94.123 0-170.667 76.544-170.667 170.667 0 31.637 8.733 61.15 23.876 86.441l-87.725 87.722c-79.916-61.326-127.045-140.315-144.786-174.291 30.848-60.075 149.077-255.872 379.306-255.872 60.932 0 114.065 14.067 159.872 35.785zM429.585 448.734c-1.903-7.031-2.918-14.426-2.918-22.067 0-47.061 38.272-85.333 85.333-85.333 7.642 0 15.040 1.015 22.067 2.918l-104.482 104.482zM977.877 443.478c-5.675 13.269-142.805 324.523-465.877 324.523-51.669 0-98.091-8.576-140.459-22.016l70.229-70.229c22.229 4.224 45.44 6.912 70.229 6.912 230.229 0 348.459-195.798 379.307-255.872-12.544-24.021-39.979-70.613-83.029-117.547l60.843-60.843c71.68 77.568 105.984 155.008 108.757 161.451l7.211 16.811-7.211 16.811zM521.092 596.394l160.64-160.639c-4.651 86.74-73.899 155.988-160.64 160.639z" />
<glyph unicode="&#xe91b;" d="M298.667 405.334l-256-192v384l256-192z" />
<glyph unicode="&#xe91c;" d="M384 213.334l256 192-256 192v-384zM725.333 213.334l256 192-256 192v-384z" />
<glyph unicode="&#xe91d;" d="M42.667 213.334l256 192-256 192v-384zM384 213.334l256 192-256 192v-384z" />
<glyph unicode="&#xe91e;" d="M981.333 405.334l-256-192v384l256-192z" />
<glyph unicode="&#xe91f;" glyph-name="booking-0-3" d="M298.667 405.334l-256-192v384l256-192zM640 405.334l-256-192v384l256-192zM981.333 405.334l-256-192v384l256-192z" />
<glyph unicode="&#xe920;" glyph-name="calendar-sm" d="M413.34 168.945c-53.626 0-93.3 20.486-114.663 46.65l32.262 41.414c20.056-20.928 51.882-33.133 80.221-33.133 35.315 0 54.934 15.258 54.934 37.056 0 23.11-17.875 33.574-58.422 33.574-12.207 0-31.827-0.435-36.186-0.87v55.804c5.232-0.436 25.287-0.436 36.186-0.436 32.263 0 53.626 9.592 53.626 30.955 0 23.107-23.543 34.443-54.062 34.443-27.903 0-53.19-10.464-73.681-30.083l-30.955 38.803c23.543 26.595 60.166 46.214 111.176 46.214 68.013 0 109.867-30.519 109.867-78.913 0-36.623-31.391-60.602-63.653-66.269 29.647-3.052 68.013-26.158 68.013-69.755 0-50.138-44.906-85.453-114.664-85.453zM725.344 174.181h-61.914v211.014l-48.392-49.267-35.315 37.059 91.559 91.992h54.061v-290.798zM853.344 725.335v-639.999h-682.667v639.999h682.667zM170.677 810.668c-47.128 0-85.333-38.205-85.333-85.333v-639.999c0-47.13 38.205-85.331 85.333-85.331h682.667c47.13 0 85.331 38.202 85.331 85.331v639.999c0 47.128-38.202 85.333-85.331 85.333h-85.344v63.999h-64v-63.999h-384v63.999h-64v-63.999h-85.323zM170.677 640.001h682.667v-85.333h-682.667v85.333z" />
<glyph unicode="&#xe921;" glyph-name="calendar" d="M390.656 121.856c-62.976 0-109.568 24.064-134.656 54.784l37.888 48.64c23.552-24.576 60.928-38.912 94.208-38.912 41.472 0 64.512 17.92 64.512 43.52 0 27.136-20.992 39.424-68.608 39.424-14.336 0-37.376-0.512-42.496-1.024v65.536c6.144-0.512 29.696-0.512 42.496-0.512 37.888 0 62.976 11.264 62.976 36.352 0 27.136-27.648 40.448-63.488 40.448-32.768 0-62.464-12.288-86.528-35.328l-36.352 45.568c27.648 31.232 70.656 54.272 130.56 54.272 79.872 0 129.024-35.84 129.024-92.672 0-43.008-36.864-71.168-74.752-77.824 34.816-3.584 79.872-30.72 79.872-81.92 0-58.88-52.736-100.352-134.656-100.352zM757.077 128h-72.704v247.808l-56.832-57.856-41.472 43.52 107.52 108.032h63.488v-341.504zM938.667 810.667v-128h-852.907v-85.333h852.907v-597.333h-853.333v810.667h853.333zM85.333 896c-47.128 0-85.333-38.205-85.333-85.333v-810.667c0-47.13 38.205-85.333 85.333-85.333h853.333c47.13 0 85.333 38.204 85.333 85.333v810.667c0 47.128-38.204 85.333-85.333 85.333h-85.333c0 0 0 42.667-42.667 42.667s-42.667-42.667-42.667-42.667h-512c0 0 0 42.667-42.667 42.667s-42.667-42.667-42.667-42.667h-85.333z" />
<glyph unicode="&#xe922;" glyph-name="call-center" d="M302.363 595.726c3.182 47.591 10.994 90.619 29.827 125.648 13.87 25.797 33.868 47.26 64.076 62.755 30.799 15.799 74.498 26.539 137.064 26.539 62.562 0 106.261-10.739 137.062-26.539 30.204-15.495 50.206-36.958 64.073-62.755 18.833-35.029 26.645-78.058 29.828-125.65-46.426-8.444-81.626-49.084-81.626-97.944v-142.225c0-48.806 35.123-89.408 81.468-97.916-5.397-50.031-16.747-86.447-35.819-112.329-18.803-25.519-49.135-45.687-103.006-54.758-15.351 22.601-41.263 37.449-70.643 37.449h-42.667c-47.13 0-85.333-38.204-85.333-85.333s38.204-85.333 85.333-85.333h42.667c33.677 0 62.793 19.507 76.676 47.838 73.604 10.871 128.695 39.334 165.675 89.519 32.93 44.693 47.518 101.867 53.188 165.914 75.191 17.835 131.127 85.414 131.127 166.063 0 80.704-56.017 148.326-131.29 166.102-3.26 57.242-12.766 117.575-40.418 169.013-21.453 39.899-53.581 74.315-100.288 98.273-46.114 23.654-104.115 35.945-176.009 35.945-71.898 0-129.899-12.291-176.012-35.945-46.706-23.959-78.836-58.374-100.287-98.273-27.655-51.439-37.158-111.773-40.417-169.015-75.268-17.781-131.279-85.399-131.279-166.099 0-94.255 76.41-170.667 170.667-170.667h28.445c54.983 0 99.555 44.574 99.555 99.554v142.225c0 48.864-35.206 89.507-81.637 97.946zM810.667 341.334h-28.446c-7.855 0-14.221 6.366-14.221 14.221v142.225c0 7.855 6.366 14.221 14.221 14.221h28.446c47.13 0 85.333-38.204 85.333-85.333s-38.204-85.333-85.333-85.333zM284.445 512h-28.445c-47.128 0-85.333-38.204-85.333-85.333s38.205-85.333 85.333-85.333h28.445c7.855 0 14.222 6.366 14.222 14.221v142.225c0 7.855-6.368 14.221-14.222 14.221z" />
<glyph unicode="&#xe923;" glyph-name="cargo-truck" horiz-adv-x="2176" d="M981.333 554.667c-17.067 0-34.133 8.534-38.4 25.6l-76.8 192-273.067 76.799h-422.4v-256c0-25.6-17.067-42.667-42.667-42.667s-42.667 17.067-42.667 42.667v298.667c0 25.6 17.067 42.667 42.667 42.667h469.333c4.267 0 8.533 0 12.8 0l298.667-85.334c12.8-4.267 21.333-12.8 29.867-25.6l85.333-213.333c8.533-21.333 0-46.933-25.6-55.466-8.533 0-12.8 0-17.067 0zM1877.333-85.333c-93.867 0-170.667 76.8-170.667 170.667s76.8 170.667 170.667 170.667c93.867 0 170.667-76.8 170.667-170.667s-76.8-170.667-170.667-170.667zM1877.333 170.667c-46.933 0-85.333-38.4-85.333-85.333s38.4-85.333 85.333-85.333c46.933 0 85.333 38.4 85.333 85.333s-38.4 85.333-85.333 85.333zM1024-85.333c-93.867 0-170.667 76.8-170.667 170.667s76.8 170.667 170.667 170.667c93.867 0 170.667-76.8 170.667-170.667s-76.8-170.667-170.667-170.667zM1024 170.667c-46.933 0-85.333-38.4-85.333-85.333s38.4-85.333 85.333-85.333c46.933 0 85.333 38.4 85.333 85.333s-38.4 85.333-85.333 85.333zM640-85.333c-93.867 0-170.667 76.8-170.667 170.667s76.8 170.667 170.667 170.667c93.867 0 170.667-76.8 170.667-170.667s-76.8-170.667-170.667-170.667zM640 170.667c-46.933 0-85.333-38.4-85.333-85.333s38.4-85.333 85.333-85.333c46.933 0 85.333 38.4 85.333 85.333s-38.4 85.333-85.333 85.333zM1749.333 42.667h-597.333c-25.6 0-42.667 17.067-42.667 42.667s17.067 42.667 42.667 42.667h597.333c25.6 0 42.667-17.067 42.667-42.667s-17.067-42.667-42.667-42.667zM896 42.667h-128c-25.6 0-42.667 17.067-42.667 42.667s17.067 42.667 42.667 42.667h128c25.6 0 42.667-17.067 42.667-42.667s-17.067-42.667-42.667-42.667zM768.004 554.667c-25.6 0-42.667 17.067-42.667 42.667v51.199l-204.796 59.734c-55.467 17.067-98.135 55.466-115.202 110.932l-21.333 64c-8.533 21.333 4.267 46.934 25.6 55.467 21.335 8.533 46.931-4.267 55.465-25.6l21.333-64c8.533-25.6 29.871-46.933 55.471-55.466l234.662-68.267c17.067-4.267 29.867-21.333 29.867-42.667v-85.333c4.267-21.333-12.8-42.667-38.4-42.667zM1280 213.334h-853.333c-46.933 0-85.333 38.4-85.333 85.333v260.267c0 46.933 38.4 81.066 81.066 81.066h345.6c25.6 0 42.667-17.067 42.667-42.667s-17.067-42.667-42.667-42.667h-345.6l4.267-256h853.333c25.6 0 42.667-17.067 42.667-42.667s-17.067-42.667-42.667-42.667zM2090.667 42.667h-85.333c-25.6 0-42.667 17.067-42.667 42.667s17.067 42.667 42.667 42.667h85.333v238.933c0 4.267 0 8.533-4.267 17.067l-89.6 243.199c-12.8 34.133-42.667 55.468-81.067 55.468h-209.067c-25.6 0-42.667-17.067-42.667-42.667v-384c0-25.6-17.067-42.667-42.667-42.667h-170.667c-25.6 0-42.667 17.067-42.667 42.667v469.333h-106.667l-115.2-153.6c-8.533-12.8-21.333-17.066-34.133-17.066h-170.667c-25.6 0-42.667 17.067-42.667 42.667s17.067 42.667 42.667 42.667h149.333l115.2 153.6c8.533 12.8 21.333 17.066 34.133 17.066h170.667c25.6 0 42.667-17.067 42.667-42.667v-469.333h85.333v341.333c0 72.533 55.467 128 128 128h209.067c72.533 0 136.533-42.667 157.867-110.934l89.6-243.2c4.267-12.8 8.533-29.867 8.533-46.933v-238.933c4.267-46.933-34.133-85.333-81.067-85.333zM213.333 554.667h-170.667c-25.6 0-42.667 17.067-42.667 42.667s17.067 42.667 42.667 42.667h170.667c25.6 0 42.667-17.067 42.667-42.667s-17.067-42.667-42.667-42.667zM2112 426.667h-234.667c-25.6 0-42.667 17.067-42.667 42.667v85.333c0 25.6 17.067 42.667 42.667 42.667h170.667l64-170.667zM2133.333 213.334h-42.667c-25.6 0-42.667 17.067-42.667 42.667s17.067 42.667 42.667 42.667h42.667c25.6 0 42.667-17.067 42.667-42.667s-17.067-42.667-42.667-42.667z" />
<glyph unicode="&#xe924;" glyph-name="carriage-sm" d="M68.902 223.179c-11.419 0-22.489-5.933-25.963-16.813-2.275-7.123-3.564-14.662-3.564-22.573 0-43.539 35.231-78.765 78.769-78.765s78.769 35.226 78.769 78.765c0 7.91-1.288 15.45-3.564 22.573-3.475 10.88-14.544 16.813-25.963 16.813h-98.485zM196.913 183.793c0-43.539 35.231-78.765 78.769-78.765s78.769 35.226 78.769 78.765c0 7.91-1.288 15.45-3.564 22.573-3.475 10.88-14.544 16.813-25.963 16.813h-98.485c-11.419 0-22.489-5.933-25.964-16.813-2.275-7.123-3.564-14.662-3.564-22.573zM699.053 223.179c-11.418 0-22.483-5.933-25.958-16.813-2.278-7.123-3.565-14.662-3.565-22.573 0-43.539 35.232-78.765 78.771-78.765 43.533 0 78.765 35.226 78.765 78.765 0 7.91-1.286 15.45-3.565 22.573-3.469 10.88-14.541 16.813-25.958 16.813h-98.49zM827.066 183.793c0-43.539 35.232-78.765 78.771-78.765s78.771 35.226 78.771 78.765c0 7.91-1.293 15.45-3.565 22.573-3.475 10.88-14.547 16.813-25.965 16.813h-98.483c-11.418 0-22.49-5.933-25.965-16.813-2.272-7.123-3.565-14.662-3.565-22.573zM50.792 644.075l63.735-302.742h-82.527c-17.673 0-32-14.327-32-32s14.327-31.997 32-31.997h960c17.67 0 32 14.323 32 31.997s-14.33 32-32 32h-82.528l63.738 302.741c4.186 19.89-10.989 38.593-31.315 38.593h-859.789c-20.326 0-35.501-18.703-31.314-38.592zM205.894 373.334l-44.912 213.333h702.038l-44.915-213.333h-612.211z" />
<glyph unicode="&#xe925;" glyph-name="carriage" d="M186.847 300.194h650.294l54.793 265.745h-759.88l54.793-265.745zM970.496 587.461l-59.546-288.794h76.783c20.028 0 36.267-16.239 36.267-36.267s-16.239-36.267-36.267-36.267h-951.467c-20.030 0-36.267 16.239-36.267 36.267s16.237 36.267 36.267 36.267h76.772l-59.545 288.794c-5.583 27.078 14.651 52.54 41.751 52.54h833.498c27.102 0 47.334-25.462 41.754-52.54zM50.452 180.514h135.384c6.769-11.695 11.077-24.926 11.077-39.386 0 14.46 4.308 27.691 11.077 39.386h135.385c6.769-11.695 11.077-24.926 11.077-39.386 0-43.537-35.231-78.771-78.769-78.771s-78.769 35.234-78.769 78.771c0-43.537-35.231-78.771-78.769-78.771s-78.769 35.234-78.769 78.771c0 14.46 4.308 27.691 11.077 39.386zM680.606 180.514h135.386c6.767-11.695 11.076-24.926 11.076-39.386 0 14.46 4.309 27.691 11.076 39.386h135.386c6.767-11.695 11.076-24.926 11.076-39.386 0-43.537-35.23-78.771-78.771-78.771-43.537 0-78.767 35.234-78.767 78.771 0-43.537-35.23-78.771-78.771-78.771-43.537 0-78.767 35.234-78.767 78.771 0 14.46 4.305 27.691 11.076 39.386z" />
<glyph unicode="&#xe926;" glyph-name="check_white" horiz-adv-x="1317" d="M1190.592 904.929c62.158-51.61 70.709-143.838 19.099-205.996l-607.314-731.429c-26.794-32.269-66.149-51.485-108.071-52.768-41.924-1.283-82.381 15.49-111.097 46.061l-343.544 365.714c-55.315 58.884-52.421 151.463 6.464 206.778s151.463 52.421 206.779-6.464l230.162-245.015 501.527 604.022c51.611 62.158 143.838 70.708 205.995 19.098z" />
<glyph unicode="&#xe927;" d="M1024 426.667c0-282.77-229.23-512-512-512s-512 229.23-512 512c0 282.77 229.23 512 512 512s512-229.23 512-512z" />
<glyph unicode="&#xe928;" d="M748.157 628.297c22.335-17.341 26.384-49.505 9.043-71.84l-283.413-365.037c-9.179-11.824-23.073-19.038-38.025-19.744s-29.465 5.165-39.718 16.071l-126.187 134.213c-19.369 20.601-18.371 53.004 2.231 72.373s53.004 18.371 72.374-2.231l85.167-90.584 246.689 317.736c17.341 22.335 49.505 26.384 71.84 9.043z" />
<glyph unicode="&#xe929;" glyph-name="checked-mini" d="M767.341 548.607c21.677 27.919 16.614 68.125-11.302 89.801-27.923 21.676-68.128 16.616-89.805-11.304l-237.506-305.911-74.913 79.677c-24.212 25.752-64.715 27-90.467 2.788s-27-64.715-2.788-90.467l126.187-134.211c12.817-13.632 30.957-20.973 49.647-20.090s36.058 9.901 47.533 24.678l283.414 365.037zM1024 426.667c0 282.77-229.229 512-512 512s-512-229.23-512-512c0-282.771 229.23-512 512-512s512 229.229 512 512zM896 426.667c0-212.077-171.923-384-384-384s-384 171.923-384 384c0 212.077 171.923 384 384 384s384-171.923 384-384z" />
<glyph unicode="&#xe92a;" glyph-name="checked-simple" horiz-adv-x="1126" d="M1088.84 918.279c42.363-32.857 50.043-93.799 17.152-136.119l-645.006-829.976c-17.41-22.402-43.761-36.070-72.118-37.409-28.357-1.337-55.881 9.787-75.326 30.451l-287.182 305.156c-36.735 39.034-34.841 100.428 4.23 137.128s100.524 34.807 137.259-4.227l209.388-222.491 575.357 740.352c32.889 42.32 93.884 49.991 136.247 17.134z" />
<glyph unicode="&#xe92b;" glyph-name="checked" d="M938.667 426.667c0 235.642-191.027 426.667-426.667 426.667-235.642 0-426.667-191.025-426.667-426.667 0-235.639 191.025-426.667 426.667-426.667 235.639 0 426.667 191.027 426.667 426.667zM1024 426.667c0-282.769-229.231-512-512-512s-512 229.231-512 512c0 282.77 229.23 512 512 512s512-229.23 512-512zM750.511 561.689l-283.413-365.038c-7.65-9.852-19.23-15.863-31.689-16.452-12.461-0.589-24.555 4.305-33.099 13.393l-126.187 134.212c-16.141 17.169-15.309 44.169 1.859 60.309s44.17 15.309 60.311-1.856l92.004-97.856 252.809 325.619c14.451 18.613 41.254 21.987 59.87 7.536 18.611-14.451 21.986-41.254 7.535-59.867z" />
<glyph unicode="&#xe92c;" glyph-name="chevron-down" d="M183.163 542.17c16.663 16.662 43.677 16.662 60.34 0l268.497-268.497 268.497 268.497c16.661 16.662 43.678 16.662 60.339 0s16.661-43.678 0-60.34l-298.667-298.667c-16.661-16.661-43.678-16.661-60.339 0l-298.667 298.667c-16.662 16.661-16.662 43.677 0 60.34z" />
<glyph unicode="&#xe92d;" glyph-name="chevron-left" d="M691.503 755.504c16.661-16.663 16.661-43.677 0-60.34l-268.497-268.497 268.497-268.497c16.661-16.661 16.661-43.678 0-60.339s-43.678-16.661-60.339 0l-298.667 298.667c-16.662 16.661-16.662 43.678 0 60.339l298.667 298.667c16.661 16.662 43.678 16.662 60.339 0z" />
<glyph unicode="&#xe92e;" glyph-name="chevron-right" d="M332.497 755.504c-16.662-16.663-16.662-43.677 0-60.34l268.497-268.497-268.497-268.497c-16.662-16.661-16.662-43.678 0-60.339s43.677-16.661 60.34 0l298.666 298.667c16.661 16.661 16.661 43.678 0 60.339l-298.666 298.667c-16.663 16.662-43.677 16.662-60.34 0z" />
<glyph unicode="&#xe92f;" glyph-name="chevron-up" d="M840.836 225.831c-16.661-16.661-43.678-16.661-60.339 0l-268.497 268.497-268.497-268.497c-16.663-16.661-43.677-16.661-60.34 0s-16.662 43.678 0 60.339l298.667 298.667c16.661 16.662 43.678 16.662 60.339 0l298.667-298.667c16.661-16.661 16.661-43.678 0-60.339z" />
<glyph unicode="&#xe930;" glyph-name="city-sm" d="M585.143 207.238h-146.286v-146.286h146.286v146.286zM438.857 353.524h146.286v-73.143h-146.286v73.143zM585.143 499.81h-146.286v-73.143h146.286v73.143zM438.857 646.096h146.286v-73.143h-146.286v73.143zM585.143 792.381h-146.286v-73.143h146.286v73.143zM877.714 134.096v-73.143h-73.143v73.143h73.143zM877.714 207.238v73.143h-73.143v-73.143h73.143zM877.714 426.667v-73.143h-73.143v73.143h73.143zM146.286 134.096h73.143v-73.143h-73.143v73.143zM219.429 280.381h-73.143v-73.143h73.143v73.143zM731.429 631.467l109.714 87.771 182.857-146.286v-658.286h-1024v512h292.571v512h438.857v-307.2zM658.286 865.524h-292.571v-877.714h292.571v877.714zM731.429 537.798v-549.988h219.429v549.989l-109.714 87.771-109.714-87.772zM73.143 353.524v-365.714h219.429v365.714h-219.429z" />
<glyph unicode="&#xe931;" glyph-name="city" d="M426.667 256h42.667v-85.333h-42.667v85.333zM469.333 341.334h-42.667v-42.667h42.667v42.667zM426.667 426.667h42.667v-42.667h-42.667v42.667zM469.333 512h-42.667v-42.667h42.667v42.667zM426.667 597.334h42.667v-42.667h-42.667v42.667zM469.333 682.667h-42.667v-42.667h42.667v42.667zM853.333 341.334h-42.667v-42.667h42.667v42.667zM810.667 426.667h42.667v-42.667h-42.667v42.667zM853.333 256h-42.667v-85.333h42.667v85.333zM768 341.334v-42.667h-42.667v42.667h42.667zM768 384v42.667h-42.667v-42.667h42.667zM682.667 341.334h-42.667v-42.667h42.667v42.667zM640 426.667h42.667v-42.667h-42.667v42.667zM682.667 256h-42.667v-85.333h42.667v85.333zM725.333 256h42.667v-85.333h-42.667v85.333zM256 298.667h-85.333v-42.667h85.333v42.667zM170.667 213.334h85.333v-42.667h-85.333v42.667zM469.333 896h-42.667v-85.333h-128v-384h-256v-384h938.667v469.333l-234.667 128-149.333-81.455v252.121h-128v85.333zM384 725.334h128v-597.333h-128v597.333zM597.333 128v333.342l149.333 81.456 149.333-81.456v-333.342h-298.667zM298.667 128h-170.667v213.333h170.667v-213.333z" />
<glyph unicode="&#xe932;" glyph-name="clock-alarm" d="M899.27 716.856c-12.659-21.112-40.038-27.964-61.146-15.305l-161.402 96.778c-21.114 12.659-27.962 40.035-15.302 61.148s40.032 27.964 61.146 15.305l161.395-96.777c21.114-12.659 27.968-40.036 15.309-61.148zM288.179 872.552l-155.377-106.178c-20.324-13.888-25.541-41.623-11.652-61.947s41.623-25.541 61.947-11.652l155.377 106.178c20.324 13.889 25.541 41.623 11.652 61.947s-41.623 25.541-61.947 11.652zM512 24.843c-186.694 0-338 151.334-338 337.999s151.306 338 338 338 337.997-151.334 337.997-338c0-186.665-151.302-337.999-337.997-337.999zM512-53.16c229.779 0 416 186.259 416 416.003 0 229.74-186.221 416-416 416-229.777 0-416-186.26-416-416 0-229.743 186.223-416.003 416-416.003zM499 570.842c-21.539 0-39-17.461-39-39v-195c0-0.435 0.007-0.868 0.021-1.3-0.014-0.431-0.021-0.865-0.021-1.3 0-21.539 17.461-39 39-39h181.998c21.542 0 39.002 17.46 39.002 39s-17.459 39-39.002 39h-142.998v158.599c0 21.539-17.461 39-39 39z" />
<glyph unicode="&#xe933;" glyph-name="clock-xs" d="M426.667 618.667c0 35.346 28.654 64 64 64s64-28.654 64-64v-149.333h149.333c35.346 0 64-28.654 64-64s-28.654-64-64-64h-213.333c-35.346 0-64 28.654-64 64v213.333zM512-85.333c-282.802 0-512 229.242-512 512s229.198 512 512 512c282.802 0 512-229.242 512-512s-229.198-512-512-512zM512 42.667c212.102 0 384 171.928 384 384s-171.898 384-384 384c-212.102 0-384-171.928-384-384s171.898-384 384-384z" />
<glyph unicode="&#xe934;" glyph-name="clock" d="M512-0c-235.669 0-426.667 191.031-426.667 426.667 0 235.634 190.998 426.667 426.667 426.667s426.667-191.033 426.667-426.667c0-235.635-190.997-426.667-426.667-426.667zM512-85.333c282.803 0 512 229.244 512 512 0 282.758-229.197 512-512 512s-512-229.242-512-512c0-282.756 229.198-512 512-512zM512 640c23.565 0 42.667-19.103 42.667-42.667v-170.667h128c23.565 0 42.667-19.102 42.667-42.667s-19.102-42.667-42.667-42.667h-170.667c-23.565 0-42.667 19.102-42.667 42.667v213.333c0 23.564 19.102 42.667 42.667 42.667z" />
<glyph unicode="&#xe935;" glyph-name="clockwatch" d="M562.672 390.665c-25.775-14.88-34.607-47.842-19.725-73.62 14.886-25.778 47.848-34.611 73.62-19.725l189.92 109.648c25.778 14.882 34.611 47.844 19.725 73.622-14.88 25.777-47.842 34.609-73.62 19.727l-189.92-109.65zM485.053 938.667h215.579c29.766 0 53.895-24.129 53.895-53.895s-24.129-53.895-53.895-53.895h-53.895v-57.23c212.685-26.522 377.263-207.952 377.263-427.822 0-238.123-193.035-431.158-431.158-431.158-159.589 0-298.927 86.706-373.477 215.579h-84.629c-14.882 0-26.947 12.067-26.947 26.947s12.065 26.947 26.947 26.947h58.288c-13.759 33.991-23.31 70.139-28.005 107.789h-138.072c-14.883 0-26.947 12.067-26.947 26.947s12.065 26.947 26.947 26.947h134.737c0 37.22 4.716 73.338 13.583 107.789h-40.53c-14.882 0-26.947 12.065-26.947 26.947s12.065 26.947 26.947 26.947h58.288c15.831 39.109 37.234 75.367 63.224 107.789h-229.302c-14.883 0-26.947 12.065-26.947 26.947s12.065 26.947 26.947 26.947h280.703c63.319 55.887 143.179 93.465 231.297 104.454v57.23h-53.895c-29.765 0-53.895 24.13-53.895 53.895s24.13 53.895 53.895 53.895zM592.842 76.351c28.268 0 51.459-21.768 53.717-49.454 135.556 22.663 242.548 129.655 265.211 265.211-27.686 2.258-49.454 25.449-49.454 53.717s21.768 51.459 49.454 53.717c-22.663 135.554-129.655 242.548-265.211 265.211-2.258-27.688-25.449-49.454-53.717-49.454s-51.459 21.766-53.717 49.454c-135.554-22.663-242.548-129.657-265.211-265.211 27.688-2.258 49.454-25.449 49.454-53.717s-21.766-51.459-49.454-53.717c22.663-135.556 129.657-242.548 265.211-265.211 2.258 27.686 25.449 49.454 53.717 49.454zM26.947 130.246c14.883 0 26.947 12.067 26.947 26.947s-12.065 26.947-26.947 26.947c-14.883 0-26.947-12.067-26.947-26.947s12.065-26.947 26.947-26.947z" />
<glyph unicode="&#xe936;" glyph-name="close-sm" d="M273.941 732.608c-18.745 18.745-49.137 18.745-67.882 0s-18.745-49.137 0-67.882l222.059-222.059-222.059-222.061c-18.745-18.746-18.745-49.133 0-67.878s49.137-18.746 67.882 0l222.059 222.057 222.061-222.057c18.746-18.746 49.133-18.746 67.878 0s18.746 49.133 0 67.878l-222.057 222.061 222.057 222.059c18.746 18.745 18.746 49.137 0 67.882s-49.133 18.745-67.878 0l-222.061-222.059-222.059 222.059z" />
<glyph unicode="&#xe937;" glyph-name="close-xs" d="M207.745 730.938c26.66 26.66 69.884 26.66 96.544 0l207.729-207.728 207.728 207.728c26.66 26.66 69.884 26.66 96.544 0s26.66-69.884 0-96.544l-207.728-207.728 207.728-207.729c26.66-26.66 26.66-69.884 0-96.544s-69.884-26.66-96.544 0l-207.728 207.729-207.729-207.729c-26.66-26.66-69.884-26.66-96.544 0s-26.66 69.884 0 96.544l207.728 207.729-207.728 207.728c-26.66 26.66-26.66 69.884 0 96.544z" />
<glyph unicode="&#xe938;" glyph-name="close" d="M286.17 140.497c-16.663-16.661-43.677-16.661-60.34 0s-16.662 43.678 0 60.339l225.831 225.83-225.831 225.83c-16.662 16.663-16.662 43.677 0 60.34s43.677 16.662 60.34 0l225.83-225.831 225.83 225.831c16.661 16.662 43.678 16.662 60.339 0s16.661-43.677 0-60.34l-225.83-225.83 225.83-225.83c16.661-16.661 16.661-43.678 0-60.339s-43.678-16.661-60.339 0l-225.83 225.83-225.83-225.83z" />
<glyph unicode="&#xe939;" glyph-name="cold" d="M947.089 218.245l0.111-0.111c37.137-46.963 76.8-101.773 76.8-167.531 0-75.733-56.687-135.936-128-135.936s-128 60.203-128 135.936c0 65.758 39.663 120.61 76.8 167.573 51.162 50.441 51.2 50.402 102.289 0.068zM913.028 113.844l0.038-0.043c12.378-17.613 25.6-38.165 25.6-62.827 0-28.399-18.897-50.974-42.667-50.974s-42.667 22.575-42.667 50.974c0 24.661 13.222 45.231 25.6 62.844 17.054 18.914 17.067 18.897 34.095 0.026zM405.34 938.667c23.562 0 42.668-19.103 42.668-42.667v-73.398l31.578 32.174c16.508 16.817 43.52 17.069 60.339 0.562 16.815-16.506 17.067-43.52 0.559-60.337l-92.476-94.22v-156.849l132.096 77.705 33.847 128.699c5.99 22.79 29.325 36.405 52.113 30.412s36.407-29.326 30.413-52.115l-11.989-45.594 61.884 36.404c20.314 11.948 46.464 5.168 58.411-15.143s5.167-46.461-15.142-58.409l-63.91-37.594 45.414-12.398c22.733-6.205 36.13-29.664 29.926-52.397s-29.666-36.131-52.395-29.925l-125.658 34.301-133.525-78.545 133.525-78.545 125.658 34.3c22.729 6.208 46.191-7.189 52.395-29.922s-7.194-46.191-29.926-52.399l-45.414-12.395 63.91-37.598c20.309-11.947 27.089-38.097 15.142-58.406-11.947-20.314-38.097-27.093-58.411-15.142l-61.884 36.403 11.989-45.594c5.995-22.793-7.625-46.123-30.413-52.117-22.788-5.99-46.123 7.625-52.113 30.413l-33.847 128.7-132.096 77.705v-156.851l92.476-94.221c16.508-16.815 16.256-43.827-0.559-60.335-16.819-16.508-43.831-16.256-60.339 0.563l-31.578 32.175v-73.399c0-23.565-19.106-42.667-42.668-42.667-23.564 0-42.667 19.102-42.667 42.667v73.399l-31.579-32.175c-16.506-16.819-43.52-17.071-60.337-0.563s-17.069 43.52-0.563 60.335l92.479 94.221v156.851l-132.098-77.705-33.846-128.7c-5.993-22.788-29.326-36.403-52.116-30.413-22.789 5.995-36.405 29.325-30.412 52.117l11.99 45.594-61.886-36.403c-20.311-11.951-46.461-5.171-58.409 15.142-11.947 20.309-5.168 46.46 15.143 58.406l63.91 37.598-45.417 12.395c-22.732 6.208-36.13 29.666-29.925 52.399s29.664 36.13 52.396 29.922l125.656-34.3 133.527 78.545-133.527 78.545-125.656-34.301c-22.732-6.206-46.191 7.192-52.396 29.925s7.192 46.191 29.925 52.397l45.417 12.398-63.91 37.594c-20.311 11.948-27.090 38.098-15.143 58.409s38.098 27.090 58.409 15.143l61.886-36.404-11.99 45.594c-5.993 22.789 7.622 46.122 30.412 52.115s46.122-7.622 52.116-30.412l33.846-128.699 132.098-77.705v156.849l-92.479 94.22c-16.506 16.817-16.254 43.831 0.563 60.337s43.831 16.254 60.337-0.562l31.579-32.174v73.398c0 23.564 19.102 42.667 42.667 42.667z" />
<glyph unicode="&#xe93a;" glyph-name="columns" d="M358.4 836.267v-819.2h-256v819.2h256zM102.4 938.667c-56.554 0-102.4-45.846-102.4-102.4v-819.2c0-56.556 45.846-102.4 102.4-102.4h256c56.554 0 102.4 45.844 102.4 102.4v819.2c0 56.554-45.846 102.4-102.4 102.4h-256zM921.6 836.267v-819.2h-256v819.2h256zM665.6 938.667c-56.556 0-102.4-45.846-102.4-102.4v-819.2c0-56.556 45.844-102.4 102.4-102.4h256c56.556 0 102.4 45.844 102.4 102.4v819.2c0 56.554-45.844 102.4-102.4 102.4h-256z" />
<glyph unicode="&#xe93b;" glyph-name="comment-sm" d="M256 602.667c0 26.509 21.491 48 48 48h416c26.509 0 48-21.491 48-48s-21.491-48-48-48h-416c-26.509 0-48 21.491-48 48zM304 458.667c-26.509 0-48-21.491-48-48s21.491-48 48-48h416c26.509 0 48 21.491 48 48s-21.491 48-48 48h-416zM13.5 754.372c0 71.566 58.355 129.92 129.92 129.92h737.277c71.565 0 129.92-58.355 129.92-129.92v-491.519c0-71.565-58.355-129.92-129.92-129.92h-439.178c-57.56-120.736-164.126-163.84-257.14-163.84-21.575 0-40.499 14.394-46.259 35.187s3.062 42.874 21.563 53.971c21.325 12.794 32.045 27.821 37.485 44.294 2.904 8.794 4.579 18.893 4.883 30.387h-58.632c-71.565 0-129.92 58.355-129.92 129.92v491.519zM143.42 788.292c-18.547 0-33.92-15.373-33.92-33.92v-491.519c0-18.547 15.373-33.92 33.92-33.92h102.4c23.197 0 43.076-16.589 47.226-39.411 5.347-29.408 7.113-59.974 2.043-89.741 28.177 20.736 52.804 52.128 69.505 97.677 6.932 18.906 24.929 31.475 45.066 31.475h471.037c18.547 0 33.92 15.373 33.92 33.92v491.519c0 18.547-15.373 33.92-33.92 33.92h-737.277z" />
<glyph unicode="&#xe93c;" glyph-name="comment" d="M83.771 697.137c0 65.022 54.674 114.993 117.925 114.993h620.606c63.249 0 117.926-49.971 117.926-114.993v-455.703c0-65.024-54.677-114.995-117.926-114.995h-352.166c-51.126-103.71-145.129-153.084-231.591-153.084-20.026 0-37.552 13.453-42.726 32.798s3.296 39.757 20.647 49.754c23.421 13.491 36.017 38.131 37.011 70.532h-51.78c-63.251 0-117.925 49.971-117.925 114.995v455.703zM201.696 723.674c-17.816 0-29.469-13.718-29.469-26.537v-455.703c0-12.821 11.653-26.539 29.469-26.539h92.121c21.254 0 39.502-15.117 43.456-35.998 4.667-24.649 6.212-52.156 2.299-79.339 24.202 19.947 45.632 48.422 60.32 86.886 6.542 17.135 22.979 28.45 41.319 28.45h381.090c17.818 0 29.47 13.717 29.47 26.539v455.703c0 12.819-11.652 26.537-29.47 26.537h-620.606zM298.667 556.228c0 24.427 19.802 44.228 44.228 44.228h338.21c24.427 0 44.228-19.802 44.228-44.228s-19.802-44.227-44.228-44.227h-338.21c-24.427 0-44.228 19.801-44.228 44.227zM342.895 429.79c-24.427 0-44.228-19.802-44.228-44.228s19.802-44.228 44.228-44.228h338.21c24.427 0 44.228 19.802 44.228 44.228s-19.802 44.228-44.228 44.228h-338.21z" />
<glyph unicode="&#xe93d;" glyph-name="commercial_blue" d="M128 746.667c0 70.692 57.308 128 128 128h512c70.694 0 128-57.308 128-128v-256h64c35.347 0 64-28.654 64-64s-28.653-64-64-64h-64v-256c0-70.694-57.306-128-128-128h-512c-70.692 0-128 57.306-128 128v256h-64c-35.346 0-64 28.654-64 64s28.654 64 64 64h64v256z" />
<glyph unicode="&#xe93e;" glyph-name="composite" d="M512 725.334v-36.571c0-2.070 0.149-4.105 0.431-6.095h-128.431c-70.692 0-128-57.308-128-128v-128.431c-1.991 0.282-4.026 0.431-6.095 0.431h-36.571c-23.564 0-42.667 19.102-42.667 42.667v256c0 23.564 19.102 42.667 42.667 42.667h256c23.565 0 42.667-19.103 42.667-42.667zM249.905 341.334c2.070 0 4.105 0.149 6.095 0.431v-43.098c0-70.694 57.308-128 128-128h36.571c2.070 0 4.105 0.149 6.095 0.431v-43.098c0-70.694 57.306-128 128-128h256c70.694 0 128 57.306 128 128v256c0 70.694-57.306 128-128 128h-43.098c0.282 1.991 0.431 4.026 0.431 6.095v36.571c0 70.692-57.306 128-128 128h-43.098c0.282 1.991 0.431 4.026 0.431 6.095v36.571c0 70.692-57.306 128-128 128h-256c-70.692 0-128-57.308-128-128v-256c0-70.694 57.308-128 128-128h36.571zM683.098 512h-128.431c-70.694 0-128-57.306-128-128v-128.431c-1.991 0.282-4.026 0.431-6.095 0.431h-36.571c-23.564 0-42.667 19.102-42.667 42.667v256c0 23.564 19.102 42.667 42.667 42.667h256c23.565 0 42.667-19.103 42.667-42.667v-36.571c0-2.070 0.149-4.105 0.431-6.095zM512 384c0 23.565 19.102 42.667 42.667 42.667h256c23.565 0 42.667-19.102 42.667-42.667v-256c0-23.565-19.102-42.667-42.667-42.667h-256c-23.565 0-42.667 19.102-42.667 42.667v256z" />
<glyph unicode="&#xe93f;" glyph-name="container-20" horiz-adv-x="1877" d="M1792-85.333h-25.6c-21.333 0-42.667 8.533-59.733 25.6l-17.067 17.067h-1501.867l-17.066-17.067c-17.067-17.067-38.4-25.6-59.733-25.6h-25.6c-46.933 0-85.333 38.4-85.333 85.333v682.667c0 46.933 38.4 85.333 85.333 85.333h25.6c21.333 0 42.666-8.534 59.733-25.6l17.066-17.066h1501.867l17.067 17.066c17.067 17.067 38.4 25.6 59.733 25.6h25.6c46.933 0 85.333-38.4 85.333-85.333v-682.667c0-46.933-38.4-85.333-85.333-85.333zM170.667 42.667h1536c12.8 0 21.333-4.267 29.867-12.8l29.867-29.867h25.6v682.667h-25.6l-29.867-29.867c-8.533-8.533-17.067-12.8-29.867-12.8h-1536c-12.8 0-21.334 4.266-29.867 12.8l-29.866 29.867h-25.6v-682.667h25.6l29.866 29.867c8.533 8.533 17.067 12.8 29.867 12.8zM59.742 674.133c-8.533 0-17.067 4.267-25.6 8.534-17.067 12.8-21.333 42.666-8.533 59.733 119.467 162.134 123.733 170.667 128 170.667 17.067 17.067 38.4 25.6 59.733 25.6h25.6c21.333 0 42.666-8.534 59.733-25.6l17.067-17.066h878.933c25.6 0 42.667-17.067 42.667-42.667s-17.067-42.667-42.667-42.667h-896c-12.8 0-21.334 4.266-29.867 12.8l-29.866 29.867h-25.6c-8.533-8.533-68.266-89.601-119.466-162.134-8.533-8.533-21.334-17.066-34.134-17.066zM1817.6 674.133c-12.8 0-25.6 4.266-34.133 17.066-51.2 72.533-115.2 153.601-119.467 162.134h-25.6l-29.867-29.867c-8.533-8.533-17.067-12.8-29.867-12.8h-213.333c-25.6 0-42.667 17.067-42.667 42.667s17.067 42.667 42.667 42.667h196.267l17.067 17.066c17.067 17.067 38.4 25.6 59.733 25.6h25.6c21.333 0 42.667-8.534 59.733-25.6 4.267-4.267 8.533-8.533 128-170.667 12.8-17.067 8.533-46.933-8.533-59.733-8.533-4.267-17.067-8.534-25.6-8.534zM554.667 128c-25.6 0-42.667 17.067-42.667 42.667v341.333c0 25.6 17.067 42.667 42.667 42.667s42.667-17.067 42.667-42.667v-341.333c0-21.333-17.067-42.667-42.667-42.667zM810.667 128c-25.6 0-42.667 17.067-42.667 42.667v341.333c0 25.6 17.067 42.667 42.667 42.667s42.667-17.067 42.667-42.667v-341.333c0-21.333-17.067-42.667-42.667-42.667zM1066.667 128c-25.6 0-42.667 17.067-42.667 42.667v341.333c0 25.6 17.067 42.667 42.667 42.667s42.667-17.067 42.667-42.667v-341.333c0-21.333-17.067-42.667-42.667-42.667zM298.667 128c-25.6 0-42.667 17.067-42.667 42.667v341.333c0 25.6 17.067 42.667 42.667 42.667s42.667-17.067 42.667-42.667v-341.333c0-21.333-17.067-42.667-42.667-42.667zM1322.667 128c-25.6 0-42.667 17.067-42.667 42.667v341.333c0 25.6 17.067 42.667 42.667 42.667s42.667-17.067 42.667-42.667v-341.333c0-21.333-17.067-42.667-42.667-42.667zM1578.667 128c-25.6 0-42.667 17.067-42.667 42.667v341.333c0 25.6 17.067 42.667 42.667 42.667s42.667-17.067 42.667-42.667v-341.333c0-21.333-17.067-42.667-42.667-42.667z" />
<glyph unicode="&#xe940;" glyph-name="container-40" horiz-adv-x="2475" d="M2389.333-85.333h-25.6c-21.333 0-42.667 8.533-59.733 25.6l-17.067 17.067h-2099.2l-17.066-17.067c-17.067-17.067-38.4-25.6-59.733-25.6h-25.6c-46.933 0-85.333 38.4-85.333 85.333v682.667c0 46.933 38.4 85.333 85.333 85.333h25.6c21.333 0 42.666-8.534 59.733-25.6l17.066-17.066h2099.2l17.067 17.066c17.067 17.067 38.4 25.6 59.733 25.6h25.6c46.933 0 85.333-38.4 85.333-85.333v-682.667c0-46.933-38.4-85.333-85.333-85.333zM170.667 42.667h2133.333c12.8 0 21.333-4.267 29.867-12.8l29.867-29.867h25.6v682.667h-25.6l-29.867-29.867c-8.533-8.533-17.067-12.8-29.867-12.8h-2133.333c-12.8 0-21.334 4.266-29.867 12.8l-29.866 29.867h-25.6v-682.667h25.6l29.866 29.867c8.533 8.533 17.067 12.8 29.867 12.8zM59.742 674.133c-8.533 0-17.067 4.267-25.6 8.534-17.067 12.8-21.333 42.666-8.533 59.733 119.467 162.134 123.733 170.667 128 170.667 17.067 17.067 38.4 25.6 59.733 25.6h25.6c21.333 0 42.666-8.534 59.733-25.6l17.067-17.066h1476.266c25.6 0 42.667-17.067 42.667-42.667s-17.067-42.667-42.667-42.667h-1493.333c-12.8 0-21.334 4.266-29.867 12.8l-29.866 29.867h-25.6c-8.533-8.533-68.266-89.601-119.466-162.134-8.533-8.533-21.334-17.066-34.134-17.066zM2414.933 674.133c-12.8 0-25.6 4.266-34.133 17.066-51.2 72.533-115.2 153.601-119.467 162.134h-25.6l-29.867-29.867c-8.533-8.533-17.067-12.8-29.867-12.8h-213.333c-25.6 0-42.667 17.067-42.667 42.667s17.067 42.667 42.667 42.667h196.267l17.067 17.066c17.067 17.067 38.4 25.6 59.733 25.6h25.6c21.333 0 42.667-8.534 59.733-25.6 4.267-4.267 8.533-8.533 128-170.667 12.8-17.067 8.533-46.933-8.533-59.733-8.533-4.267-17.067-8.534-25.6-8.534zM1109.333 128c-25.6 0-42.667 17.067-42.667 42.667v341.333c0 25.6 17.067 42.667 42.667 42.667s42.667-17.067 42.667-42.667v-341.333c0-21.333-17.067-42.667-42.667-42.667zM1365.333 128c-25.6 0-42.667 17.067-42.667 42.667v341.333c0 25.6 17.067 42.667 42.667 42.667s42.667-17.067 42.667-42.667v-341.333c0-21.333-17.067-42.667-42.667-42.667zM1621.333 128c-25.6 0-42.667 17.067-42.667 42.667v341.333c0 25.6 17.067 42.667 42.667 42.667s42.667-17.067 42.667-42.667v-341.333c0-21.333-17.067-42.667-42.667-42.667zM341.333 128c-25.6 0-42.667 17.067-42.667 42.667v341.333c0 25.6 17.067 42.667 42.667 42.667s42.667-17.067 42.667-42.667v-341.333c0-21.333-17.067-42.667-42.667-42.667zM597.333 128c-25.6 0-42.667 17.067-42.667 42.667v341.333c0 25.6 17.067 42.667 42.667 42.667s42.667-17.067 42.667-42.667v-341.333c0-21.333-17.067-42.667-42.667-42.667zM853.333 128c-25.6 0-42.667 17.067-42.667 42.667v341.333c0 25.6 17.067 42.667 42.667 42.667s42.667-17.067 42.667-42.667v-341.333c0-21.333-17.067-42.667-42.667-42.667zM1877.333 128c-25.6 0-42.667 17.067-42.667 42.667v341.333c0 25.6 17.067 42.667 42.667 42.667s42.667-17.067 42.667-42.667v-341.333c0-21.333-17.067-42.667-42.667-42.667zM2133.333 128c-25.6 0-42.667 17.067-42.667 42.667v341.333c0 25.6 17.067 42.667 42.667 42.667s42.667-17.067 42.667-42.667v-341.333c0-21.333-17.067-42.667-42.667-42.667z" />
<glyph unicode="&#xe941;" glyph-name="container-sm" d="M793.011 810.667l-42.662-42.667h-476.675l-42.666 42.667h-60.331c-47.147 0-85.333-38.187-85.333-85.333v-554.667c0-47.149 38.186-85.331 85.333-85.331h682.667c47.149 0 85.331 38.182 85.331 85.331v554.667c0 47.146-38.182 85.333-85.331 85.333h-60.333zM298.677 255.998h-85.333v341.336h85.333v-341.336zM469.344 255.998h-85.334v341.336h85.334v-341.336zM640.013 255.998h-85.336v341.336h85.336v-341.336zM810.675 255.998h-85.331v341.336h85.331v-341.336z" />
<glyph unicode="&#xe942;" glyph-name="container" d="M174.089 780.8h-42.416l-1.319-0.281c-7.413-1.58-14.080-5.736-18.694-11.846l-0.566-0.75-72.903-133.399-0.183-0.183-1.609-2.413c-4.215-5.493-6.524-12.294-6.524-19.235v-525.653c0-17.408 14.164-31.573 31.574-31.573h56.32c12.855 0 23.941 7.723 28.861 18.773h730.759c4.919-11.051 16.004-18.773 28.86-18.773h56.32c17.408 0 31.573 14.165 31.573 31.573v525.653c0 7.151-2.449 14.153-6.912 19.729l-0.444 0.553-0.759 0.761-0.222 0.246-72.969 134.1-0.717 0.893c-6.016 7.493-15.040 11.824-24.644 11.824h-37.547c-12.855 0-23.94-7.724-28.86-18.773h-618.119c-4.92 11.050-16.006 18.773-28.861 18.773zM150.069 709.982l-30.027-65.796c11.878-0.849 21.96-8.3 26.587-18.692h730.759c4.625 10.393 14.707 17.843 26.586 18.692l-30.029 65.796c-5.794-6.79-14.413-11.102-24.017-11.102h-675.84c-9.606 0-18.223 4.312-24.019 11.102zM93.022 125.402v448.931c5.788-7.297 14.73-11.986 24.747-11.986h788.48c10.018 0 18.957 4.689 24.747 11.986v-448.931c-5.79 7.296-14.733 11.985-24.747 11.985h-788.48c-10.016 0-18.959-4.689-24.747-11.985zM204.8 469.334c-18.851 0-34.133-15.283-34.133-34.133v-187.733c0-18.85 15.282-34.133 34.133-34.133s34.133 15.283 34.133 34.133v187.733c0 18.85-15.282 34.133-34.133 34.133zM324.271 435.2c0 18.85 15.282 34.133 34.133 34.133s34.133-15.283 34.133-34.133v-187.733c0-18.85-15.282-34.133-34.133-34.133s-34.133 15.283-34.133 34.133v187.733zM512.009 469.334c-18.85 0-34.133-15.283-34.133-34.133v-187.733c0-18.85 15.283-34.133 34.133-34.133s34.133 15.283 34.133 34.133v187.733c0 18.85-15.283 34.133-34.133 34.133zM631.458 435.2c0 18.85 15.283 34.133 34.133 34.133s34.133-15.283 34.133-34.133v-187.733c0-18.85-15.283-34.133-34.133-34.133s-34.133 15.283-34.133 34.133v187.733zM819.196 469.334c-18.85 0-34.133-15.283-34.133-34.133v-187.733c0-18.85 15.283-34.133 34.133-34.133s34.133 15.283 34.133 34.133v187.733c0 18.85-15.283 34.133-34.133 34.133z" />
<glyph unicode="&#xe943;" glyph-name="copy-2" d="M768 170.667v-85.333c0-47.13-38.204-85.333-85.333-85.333h-512c-47.128 0-85.333 38.204-85.333 85.333v512c0 47.128 38.205 85.333 85.333 85.333h85.333v85.333c0 47.128 38.205 85.333 85.333 85.333h512c47.13 0 85.333-38.205 85.333-85.333v-512c0-47.13-38.204-85.333-85.333-85.333h-85.333zM768 597.334v-341.333h85.333v512h-512v-85.333h341.333c47.13 0 85.333-38.205 85.333-85.333zM170.667 597.334v-512h512v512h-512zM426.667 512c-23.564 0-42.667-19.102-42.667-42.667v-85.333h-85.333c-23.564 0-42.667-19.102-42.667-42.667s19.103-42.667 42.667-42.667h85.333v-85.333c0-23.565 19.102-42.667 42.667-42.667s42.667 19.102 42.667 42.667v85.333h85.333c23.565 0 42.667 19.102 42.667 42.667s-19.102 42.667-42.667 42.667h-85.333v85.333c0 23.565-19.102 42.667-42.667 42.667z" />
<glyph unicode="&#xe944;" glyph-name="copy" d="M768 170.667v-85.333c0-47.13-38.204-85.333-85.333-85.333h-512c-47.128 0-85.333 38.204-85.333 85.333v512c0 47.128 38.205 85.333 85.333 85.333h85.333v85.333c0 47.128 38.205 85.333 85.333 85.333h512c47.13 0 85.333-38.205 85.333-85.333v-512c0-47.13-38.204-85.333-85.333-85.333h-85.333zM768 597.334v-341.333h85.333v512h-512v-85.333h341.333c47.13 0 85.333-38.205 85.333-85.333zM170.667 597.334v-512h512v512h-512z" />
<glyph unicode="&#xe945;" glyph-name="delete-xs" d="M896 426.667c0 212.072-171.898 384-384 384s-384-171.928-384-384c0-212.072 171.898-384 384-384s384 171.928 384 384zM1024 426.667c0-282.758-229.198-512-512-512s-512 229.242-512 512c0 282.758 229.198 512 512 512s512-229.242 512-512zM330.981 517.177l90.51-90.51-90.51-90.51c-24.993-24.993-24.993-65.516 0-90.51s65.516-24.993 90.51 0l90.51 90.51 90.51-90.51c24.993-24.993 65.516-24.993 90.51 0s24.993 65.516 0 90.51l-90.51 90.51 90.51 90.51c24.993 24.993 24.993 65.516 0 90.51s-65.516 24.993-90.51 0l-90.51-90.51-90.51 90.51c-24.993 24.993-65.516 24.993-90.51 0s-24.993-65.516 0-90.51z" />
<glyph unicode="&#xe946;" glyph-name="delete" d="M512-0c-235.669 0-426.667 191.031-426.667 426.667 0 235.634 190.998 426.667 426.667 426.667s426.667-191.033 426.667-426.667c0-235.635-190.997-426.667-426.667-426.667zM512-85.333c282.803 0 512 229.244 512 512 0 282.758-229.197 512-512 512s-512-229.242-512-512c0-282.756 229.198-512 512-512zM353.83 584.837c-16.662-16.663-16.662-43.677 0-60.34l97.831-97.83-97.831-97.83c-16.662-16.661-16.662-43.678 0-60.339s43.677-16.661 60.34 0l97.83 97.83 97.83-97.83c16.661-16.661 43.678-16.661 60.339 0s16.661 43.678 0 60.339l-97.83 97.83 97.83 97.83c16.661 16.663 16.661 43.677 0 60.34s-43.678 16.662-60.339 0l-97.83-97.831-97.83 97.831c-16.663 16.662-43.677 16.662-60.34 0z" />
<glyph unicode="&#xe947;" glyph-name="digital-document" horiz-adv-x="819" d="M113.23 819.148c-7.747-10.76-10.83-25.21-10.83-34.084v-460.802h-102.4v460.802c0 25.26 7.157 62.010 30.129 93.916 24.852 34.517 72.271 59.687 123.471 59.684s512.584 0.022 514.857-0.053c0 0 3.103-0.127 5.192-0.277 4.163-0.297 9.769-0.867 16.369-1.967 12.954-2.159 31.007-6.572 49.679-15.909 18.872-9.437 39.306-24.396 54.907-47.794 15.811-23.718 24.596-53.042 24.596-87.601v-256h-102.4v256c0 16.641-4.014 25.718-7.404 30.799-3.599 5.402-8.765 9.643-15.493 13.006-6.927 3.464-14.474 5.45-20.721 6.492-4.244 0.708-7.347 0.876-8.044 0.903h-511.539c-24.273 0-34.502-8.967-40.37-17.116zM204.8 682.664c0 28.277 22.923 51.2 51.2 51.2h307.2c28.278 0 51.2-22.923 51.2-51.2s-22.922-51.2-51.2-51.2h-307.2c-28.277 0-51.2 22.923-51.2 51.2zM204.8 477.864c0 28.277 22.923 51.2 51.2 51.2h153.6v-102.402h-153.6c-28.277 0-51.2 22.925-51.2 51.202zM819.2 426.662h-102.4v-102.4h102.4v102.4zM409.6 17.062h102.4v102.4h102.4v-102.4h102.4v-102.4h-307.2v102.4zM716.8 17.062v102.4h102.4v-102.4h-102.4zM512 221.862v-102.4h-204.8v102.4h-102.4v102.4h204.8v-102.4h102.4zM512 221.862v102.4h102.4v-102.4h-102.4zM204.8 17.062v102.4h102.4v-102.4h-102.4zM204.8 17.062v-102.4h-102.4v102.4h102.4zM102.4 170.662h-102.4v-102.4h102.4v102.4zM614.4 529.064h-102.4v-102.402h102.4v102.402z" />
<glyph unicode="&#xe948;" glyph-name="document" d="M725.333 768c23.565 0 42.667-19.103 42.667-42.667v-597.333c0-23.565-19.102-42.667-42.667-42.667h-426.667c-23.564 0-42.667 19.102-42.667 42.667v597.333c0 23.564 19.102 42.667 42.667 42.667h426.667zM298.667 853.334c-70.692 0-128-57.308-128-128v-597.333c0-70.694 57.308-128 128-128h426.667c70.694 0 128 57.306 128 128v597.333c0 70.692-57.306 128-128 128h-426.667zM341.333 298.667c0 23.565 19.103 42.667 42.667 42.667h128c23.565 0 42.667-19.102 42.667-42.667s-19.102-42.667-42.667-42.667h-128c-23.564 0-42.667 19.102-42.667 42.667zM341.333 469.334c0 23.565 19.103 42.667 42.667 42.667h256c23.565 0 42.667-19.102 42.667-42.667s-19.102-42.667-42.667-42.667h-256c-23.564 0-42.667 19.102-42.667 42.667zM341.333 640c0 23.564 19.103 42.667 42.667 42.667h256c23.565 0 42.667-19.103 42.667-42.667s-19.102-42.667-42.667-42.667h-256c-23.564 0-42.667 19.103-42.667 42.667z" />
<glyph unicode="&#xe949;" glyph-name="double-checked-simple" d="M700.813 734.517c26.298-19.54 31.021-55.731 10.547-80.833l-375.76-460.796c-10.818-13.267-27.167-21.363-44.759-22.157s-34.669 5.786-46.753 18.016l-227.644 230.398c-22.865 23.142-21.748 59.596 2.495 81.423s62.432 20.76 85.298-2.381l179.359-181.53 332.534 407.789c20.47 25.103 58.385 29.612 84.682 10.072zM1000.723 734.517c26.298-19.54 31.021-55.731 10.547-80.833l-375.759-460.796c-10.818-13.267-27.167-21.363-44.759-22.157s-34.669 5.786-46.753 18.016l-56.911 57.6c-22.866 23.142-21.748 59.595 2.495 81.422s62.433 20.76 85.298-2.381l8.626-8.731 332.538 407.789c20.467 25.103 58.381 29.612 84.678 10.072z" />
<glyph unicode="&#xe94a;" glyph-name="double-checked" d="M938.667 426.667c0 235.642-191.027 426.667-426.667 426.667-235.642 0-426.667-191.025-426.667-426.667 0-235.639 191.025-426.667 426.667-426.667 235.639 0 426.667 191.027 426.667 426.667zM1024 426.667c0-282.769-229.231-512-512-512s-512 229.231-512 512c0 282.77 229.23 512 512 512s512-229.23 512-512zM644.877 588.336c-18.598 14.475-45.406 11.134-59.878-7.46l-235.135-302.066-126.825 134.464c-16.168 17.143-43.171 17.933-60.314 1.766s-17.932-43.17-1.764-60.314l160.967-170.667c8.544-9.058 20.62-13.935 33.059-13.346 12.439 0.593 24 6.583 31.649 16.414l265.699 341.332c14.477 18.595 11.136 45.402-7.458 59.877zM856.943 588.336c-18.594 14.475-45.402 11.134-59.878-7.46l-235.136-302.066-6.097 6.464c-16.171 17.143-43.17 17.933-60.314 1.766s-17.933-43.17-1.766-60.314l40.243-42.667c8.546-9.058 20.621-13.935 33.058-13.346 12.437 0.593 24 6.583 31.65 16.414l265.698 341.332c14.477 18.595 11.136 45.402-7.458 59.877z" />
<glyph unicode="&#xe94b;" glyph-name="download" d="M469.342 384v426.667c0 23.564 19.102 42.667 42.667 42.667s42.667-19.103 42.667-42.667v-426.667h83.614c17.886 0 27.831-20.693 16.657-34.658l-126.281-157.854c-8.542-10.675-24.777-10.675-33.318 0l-126.278 157.854c-11.174 13.965-1.229 34.658 16.659 34.658h83.614zM128 85.334c0 23.565 19.103 42.667 42.667 42.667h682.667c23.565 0 42.667-19.102 42.667-42.667s-19.102-42.667-42.667-42.667h-682.667c-23.564 0-42.667 19.102-42.667 42.667z" />
<glyph unicode="&#xe94c;" glyph-name="edit" d="M763.511 745.404l77.577-77.58-492.607-492.609-123.103-45.521 45.523 123.102 492.61 492.608zM793.86 827.473c-14.285 14.282-38.443 13.277-53.965-2.245l-527.348-527.346c-4.363-4.365-7.732-9.6-9.839-15.3l-75.872-205.171c-11.184-30.242 16.015-57.442 46.26-46.259l205.171 75.874c5.698 2.103 10.936 5.474 15.299 9.835l527.346 527.349c15.522 15.522 16.529 39.683 2.244 53.964l-129.297 129.3zM726.43 501.445l-155.162 155.159 56.209 56.209 155.162-155.159-56.209-56.208zM335.209 161.946l-103.439 103.441 56.209 56.209 103.439-103.441-56.209-56.209z" />
<glyph unicode="&#xe94d;" glyph-name="electric-locomotive" horiz-adv-x="2517" d="M2090.667-85.333c-72.533 0-128 55.467-128 128 0 25.6 17.067 42.667 42.667 42.667s42.667-17.067 42.667-42.667c0-25.6 17.067-42.667 42.667-42.667s42.667 17.067 42.667 42.667c0 25.6 17.067 42.667 42.667 42.667s42.667-17.067 42.667-42.667c0-68.267-55.467-128-128-128zM1792-85.333c-72.533 0-128 55.467-128 128 0 25.6 17.067 42.667 42.667 42.667s42.667-17.067 42.667-42.667c0-25.6 17.067-42.667 42.667-42.667s42.667 17.067 42.667 42.667c0 25.6 17.067 42.667 42.667 42.667s42.667-17.067 42.667-42.667c0-68.267-55.467-128-128-128zM1493.333-85.333c-72.533 0-128 55.467-128 128 0 25.6 17.067 42.667 42.667 42.667s42.667-17.067 42.667-42.667c0-25.6 17.067-42.667 42.667-42.667s42.667 17.067 42.667 42.667c0 25.6 17.067 42.667 42.667 42.667s42.667-17.067 42.667-42.667c0-68.267-55.467-128-128-128zM2231.471 341.334h-149.333c-17.067 0-29.867 12.8-29.867 29.867v149.332c0 17.067 12.8 29.867 29.867 29.867h81.067c12.8 0 21.333-4.266 29.867-12.799l59.733-59.734c8.533-8.533 12.8-17.067 12.8-29.867v-76.8c-4.267-17.067-17.067-29.867-34.133-29.867zM2432 170.667h-85.333c-25.6 0-42.667 17.067-42.667 42.667s17.067 42.667 42.667 42.667h85.333c25.6 0 42.667-17.067 42.667-42.667s-17.067-42.667-42.667-42.667zM2389.333 640h-85.333c-25.6 0-42.667 17.067-42.667 42.667s17.067 42.667 42.667 42.667h85.333c25.6 0 42.667-17.067 42.667-42.667s-17.067-42.667-42.667-42.667zM341.333-85.333c-72.533 0-128 55.467-128 128 0 25.6 17.067 42.667 42.667 42.667s42.667-17.067 42.667-42.667c0-25.6 17.067-42.667 42.667-42.667s42.667 17.067 42.667 42.667c0 25.6 17.067 42.667 42.667 42.667s42.667-17.067 42.667-42.667c0-68.267-51.2-128-128-128zM640-85.333c-72.533 0-128 55.467-128 128 0 25.6 17.067 42.667 42.667 42.667s42.667-17.067 42.667-42.667c0-25.6 17.067-42.667 42.667-42.667s42.667 17.067 42.667 42.667c0 25.6 17.067 42.667 42.667 42.667s42.667-17.067 42.667-42.667c0-68.267-55.467-128-128-128zM2474.667-42.666h-119.467c-46.933 0-93.867 25.6-115.2 72.533l-8.533 12.8h-2188.8c-25.6 0-42.667 17.067-42.667 42.667v554.667c0 72.533 55.467 128 128 128h512c8.533 0 12.8 0 17.067-4.267l76.8-38.4h746.667l76.8 38.4c4.267 4.267 12.8 4.267 17.067 4.267h341.333c25.6 0 42.667-17.067 42.667-42.667s-17.067-42.667-42.667-42.667h-332.8l-76.8-38.4c-4.267-4.267-12.8-4.267-17.067-4.267h-768c-8.533 0-12.8 0-17.067 4.267l-76.8 38.4h-499.2c-25.6 0-42.667-17.067-42.667-42.667v-512h2176c17.067 0 29.867-8.533 38.4-25.6l17.067-38.4c8.533-12.8 21.333-25.6 38.4-25.6h68.267l-34.133 204.8c0 4.267 0 8.533 0 12.8l38.4 234.667-162.133 162.133c-17.067 17.067-38.4 25.6-59.733 25.6h-119.467c-25.6 0-42.667 17.067-42.667 42.667s17.067 42.667 42.667 42.667h119.467c46.933 0 89.6-17.067 119.467-51.2l174.933-174.932c8.533-8.533 12.8-25.6 12.8-38.4l-42.667-247.467 42.667-247.467c0-12.8 0-25.6-8.533-34.133-4.267-8.533-17.067-12.8-29.867-12.8zM1450.667 469.334h-725.333c-25.6 0-42.667 17.067-42.667 42.667s17.067 42.667 42.667 42.667h725.333c25.6 0 42.667-17.067 42.667-42.667s-17.067-42.667-42.667-42.667zM1450.667 298.667h-725.333c-25.6 0-42.667 17.067-42.667 42.667s17.067 42.667 42.667 42.667h725.333c25.6 0 42.667-17.067 42.667-42.667s-17.067-42.667-42.667-42.667zM1706.667 341.334h213.333c25.6 0 42.667 17.067 42.667 42.667v128c0 25.6-17.067 42.667-42.667 42.667h-213.333c-25.6 0-42.667-17.067-42.667-42.667v-128c0-21.333 17.067-42.667 42.667-42.667zM256 384h256c25.6 0 42.667 17.067 42.667 42.667v85.333c0 25.6-17.067 42.667-42.667 42.667h-256c-25.6 0-42.667-17.067-42.667-42.667v-85.333c0-21.333 17.067-42.667 42.667-42.667zM1706.667 682.667c-8.533 0-17.067 4.266-25.6 8.532-17.067 12.8-21.333 42.668-8.533 59.735l59.733 72.532-38.4 29.867h-200.533c-25.6 0-42.667 17.067-42.667 42.667s17.067 42.667 42.667 42.667h213.333c8.533 0 17.067-4.267 25.6-8.534l85.333-64c8.533-8.533 17.067-17.066 17.067-29.866s0-21.334-8.533-34.134l-85.333-106.667c-8.533-8.533-21.333-12.8-34.133-12.8z" />
<glyph unicode="&#xe94e;" glyph-name="email" d="M85.333 640c0 70.692 57.308 128 128 128h597.333c70.694 0 128-57.308 128-128v-426.667c0-70.694-57.306-128-128-128h-597.333c-70.692 0-128 57.306-128 128v426.667zM213.333 682.667c-23.564 0-42.667-19.103-42.667-42.667v-426.667c0-23.565 19.103-42.667 42.667-42.667h597.333c23.565 0 42.667 19.102 42.667 42.667v426.667c0 23.564-19.102 42.667-42.667 42.667h-597.333zM485.811 264.99l-383.999 298.665 52.39 67.358 357.807-278.292 357.803 278.292 52.39-67.358-384-298.665c-15.407-11.985-36.983-11.985-52.39 0z" />
<glyph unicode="&#xe94f;" glyph-name="event" d="M213.333 896c-94.257 0-170.667-76.41-170.667-170.667v-407.706c0-94.255 76.41-170.667 170.667-170.667h135.111l126.009-168.009c18.773-25.033 56.32-25.033 75.093 0l126.007 168.009h135.113c94.255 0 170.667 76.412 170.667 170.667v407.706c0 94.257-76.412 170.667-170.667 170.667h-597.333zM128 725.334c0 47.128 38.205 85.333 85.333 85.333h597.333c47.13 0 85.333-38.205 85.333-85.333v-407.706c0-47.125-38.204-85.333-85.333-85.333h-135.113c-26.859 0-52.151-12.642-68.267-34.133l-95.287-127.049-95.289 127.049c-16.116 21.491-41.408 34.133-68.267 34.133h-135.111c-47.128 0-85.333 38.208-85.333 85.333v407.706zM341.333 469.334c23.564 0 42.667 19.102 42.667 42.667s-19.103 42.667-42.667 42.667c-23.564 0-42.667-19.102-42.667-42.667s19.103-42.667 42.667-42.667zM554.667 512c0-23.565-19.102-42.667-42.667-42.667s-42.667 19.102-42.667 42.667c0 23.564 19.102 42.667 42.667 42.667s42.667-19.102 42.667-42.667zM682.667 469.334c23.565 0 42.667 19.102 42.667 42.667s-19.102 42.667-42.667 42.667c-23.565 0-42.667-19.102-42.667-42.667s19.102-42.667 42.667-42.667z" />
<glyph unicode="&#xe950;" glyph-name="excel" d="M85.333 810.667c0 70.693 57.308 128 128 128h597.333c70.694 0 128-57.308 128-128v-298.667c0-23.565-19.102-42.667-42.667-42.667s-42.667 19.102-42.667 42.667v298.667c0 23.564-19.102 42.667-42.667 42.667h-597.333c-23.564 0-42.667-19.103-42.667-42.667v-768c0-23.565 19.103-42.667 42.667-42.667h426.667c23.565 0 42.667-19.102 42.667-42.667s-19.102-42.667-42.667-42.667h-426.667c-70.692 0-128 57.306-128 128v768zM473.724 426.667l-121.3 213.333h113.676l59.61-127.715c4.681-10.077 8.836-22.476 12.476-36.39h0.695c2.338 8.294 6.844 21.316 13.167 37.817l65.847 126.288h103.974l-124.075-211.191 127.539-215.475h-110.208l-72.090 139.132c-2.684 5.171-5.457 14.626-8.316 28.54h-0.695c-1.382-6.511-4.676-16.678-9.702-29.969l-72.085-137.702h-110.903l132.39 213.333zM938.675 85.172v170.829c0 23.565-19.102 42.667-42.667 42.667s-42.667-19.102-42.667-42.667v-170.991l-42.53-0.081c-17.604-0.030-27.597-20.173-16.969-34.206l85.845-113.408c8.576-11.332 25.626-11.264 34.116 0.128l84.749 113.732c10.496 14.084 0.418 34.112-17.148 34.078l-42.731-0.081z" />
<glyph unicode="&#xe951;" glyph-name="exclamation-point" d="M512.004 874.667c68.904 0 123.092-58.892 117.37-127.558l-24.95-299.404c-4.005-48.067-44.187-85.039-92.42-85.039s-88.414 36.972-92.42 85.039l-24.95 299.404c-5.722 68.666 48.466 127.558 117.37 127.558zM512.063-21.333c53.019 0 96 42.982 96 96s-42.981 96-96 96c-53.020 0-96-42.982-96-96s42.98-96 96-96z" />
<glyph unicode="&#xe952;" glyph-name="exit" horiz-adv-x="884" d="M95.601 845.576c-1.197-2.3-2.51-6.234-2.51-11.636v-814.545c0-5.404 1.314-9.337 2.51-11.636h600.072c1.196 2.299 2.509 6.232 2.509 11.636v106.845c0 25.702 20.838 46.545 46.545 46.545s46.545-20.843 46.545-46.545v-106.845c0-25.167-7.601-49.738-22.095-69.059-14.499-19.335-38.093-35.668-68.087-35.668h-610.909c-29.993 0-53.587 16.333-68.087 35.668-14.494 19.321-22.095 43.892-22.095 69.059v814.545c0 25.166 7.6 49.736 22.095 69.062 14.5 19.333 38.094 35.665 68.087 35.665h610.909c29.994 0 53.588-16.332 68.087-35.665 14.494-19.326 22.095-43.896 22.095-69.062v-106.843c0-25.707-20.838-46.545-46.545-46.545s-46.545 20.839-46.545 46.545v106.843c0 5.402-1.313 9.337-2.509 11.636h-600.072zM279.273 426.667c0 25.707 20.839 46.545 46.545 46.545h465.455c25.707 0 46.545-20.838 46.545-46.545s-20.838-46.545-46.545-46.545h-465.455c-25.706 0-46.545 20.838-46.545 46.545zM525.633 715.58c18.176 18.177 47.649 18.177 65.825 0l288.912-288.913-288.912-288.912c-18.176-18.176-47.649-18.176-65.825 0s-18.176 47.649 0 65.825l223.088 223.088-223.088 223.087c-18.176 18.177-18.176 47.648 0 65.826z" />
<glyph unicode="&#xe953;" glyph-name="external-link" d="M277.313 661.334c-23.564 0-42.667-19.102-42.667-42.666v-426.669c0-23.565 19.103-42.662 42.667-42.662h426.668c23.565 0 42.662 19.104 42.662 42.662v188.447c0 23.564 19.104 42.667 42.669 42.667s42.669-19.103 42.669-42.667v-188.447c0-70.688-57.312-128-128-128h-426.668c-70.692 0-128 57.312-128 128v426.669c0 70.692 57.308 128 128 128h213.333c23.564 0 42.667-19.103 42.667-42.667s-19.103-42.667-42.667-42.667h-213.333zM460.476 375.164c-16.662 16.662-16.662 43.677 0 60.34l426.666 426.666c16.666 16.663 43.68 16.663 60.339 0 16.666-16.662 16.666-43.677 0-60.339l-426.666-426.667c-16.662-16.662-43.677-16.662-60.34 0zM959.981 490.668c-23.565 0.001-42.669 19.104-42.669 42.668l0.013 298.666-298.679-0.001c-23.564 0-42.666 19.103-42.666 42.667s19.102 42.667 42.666 42.667l341.348 0.001c11.315 0 22.163-4.495 30.17-12.497 8-8.002 12.493-18.855 12.493-30.171l-0.013-341.334c0-23.564-19.104-42.666-42.662-42.665z" />
<glyph unicode="&#xe954;" glyph-name="fence" d="M469.333 853.333l-288.25-286.714c-6.668-6.001-10.415-14.139-10.417-22.625v-543.998h85.333v530.748l234.667 224 234.667-224v-530.748h85.333v543.998c0 8.486-3.75 16.625-10.415 22.625l-288.252 286.714-42.667-0.001zM341.333 426.663v-298.667h85.333v170.667l128-170.667h85.333v298.667h-85.333v-170.667l-128 170.667h-85.333z" />
<glyph unicode="&#xe955;" glyph-name="filter" d="M973.020 938.667c28.155 0 50.98-22.923 50.98-51.2 0-20.575-12.083-38.316-29.512-46.453l-431.288-431.161v-443.986c0-28.278-23.045-51.2-51.2-51.2s-51.2 22.922-51.2 51.2v435.523c-1.237 1.029-0.031 2.125-1.189 3.287l-444.679 446.586c-19.909 19.995-19.909 52.413 0 72.408 10.509 10.554 24.465 15.537 38.229 14.95 0.728 0.031 1.459 0.047 2.194 0.047h917.665zM845.563 836.267h-671.502l335.751-337.191 335.751 337.191z" />
<glyph unicode="&#xe956;" glyph-name="first-bid" d="M512 170.667c188.514 0 341.333 152.819 341.333 341.333s-152.819 341.333-341.333 341.333c-188.513 0-341.333-152.82-341.333-341.333s152.82-341.333 341.333-341.333zM938.667 512c0-221.239-168.393-403.153-384-424.559v-130.108c0-23.565-19.102-42.667-42.667-42.667s-42.667 19.102-42.667 42.667v130.108c-215.608 21.406-384 203.319-384 424.559 0 235.642 191.025 426.667 426.667 426.667 235.639 0 426.667-191.025 426.667-426.667zM512 298.667c23.565 0 42.667 19.102 42.667 42.667v344.538c0 21.794-17.668 39.462-39.462 39.462-17.161 0-32.299-11.258-41.165-25.951-11.375-18.858-29.867-40.968-55.477-52.137-17.999-7.851-34.562-23.164-34.562-42.801s15.919-35.556 35.555-35.556h49.778v-227.555c0-23.565 19.102-42.667 42.667-42.667z" />
<glyph unicode="&#xe957;" glyph-name="flag-finish" d="M173.591 705.464l244.641-701.222-72.306-25.574-244.64 701.22 72.305 25.576zM924.096 874.667l-56.467-49.379c0 0-82.848-68.27-165.51-68.27-37.709 0-67.798 15.338-105.507 30.488-41.423 18.892-90.277 45.452-161.793 45.452-203.403 0-320.057-125.132-327.673-132.8l-11.146-11.222 195.786-553.455 41.238 41.709c0 0 90.463 90.899 180.74 90.899 56.47 0 90.463-11.405 120.556-18.886 30.090-7.674 60.182-19.078 105.322-19.078 90.464 0 165.696 41.709 169.414 41.709l18.944 11.411-3.904 591.424zM852.582 328.691c-22.477-11.222-67.802-26.559-116.653-26.559-33.811 0-56.474 7.668-86.56 15.337-37.711 11.223-75.235 22.632-143.035 22.632-75.417 0-146.933-45.453-188.356-75.751l-139.132 405.506c33.808 30.301 124.085 94.83 259.687 94.83 52.755 0 90.277-18.891 131.7-37.969 41.424-18.892 79.135-37.782 135.603-37.782s112.941 22.632 150.65 45.451v-405.694h-3.904zM137.439 681.266c0 0 56.47 60.602 135.416 87.162l60.185-151.504c0 0-75.231-26.559-139.131-87.348l-56.47 144.209v7.482zM329.324 612.996l64.086-162.913c0 0 48.854 18.891 82.847 18.891 33.808 0 67.615-3.741 67.615-3.741l-45.139 174.323c0 0-11.331 0-30.092 0-75.231 0-139.317-26.56-139.317-26.56zM254.093 355.252l52.755-151.503c0 0 75.231 72.013 143.032 90.899l-60.371 155.435c-63.9-26.56-135.416-94.831-135.416-94.831zM457.286 798.728l41.447-159.172c33.993 0 127.962-45.452 127.962-45.452l-37.523 166.842c-18.947 3.741-75.417 34.042-131.887 37.782zM543.849 461.492l45.324-166.844c22.477 0 86.564-26.56 112.939-26.56l-37.709 163.103c-37.708 11.222-94.177 30.301-120.554 30.301zM626.696 590.364l33.996-155.432c0 0 33.805-7.669 60.186-7.669 26.374 0 56.467 3.928 56.467 3.928l-11.334 144.022c0 0-22.47-7.668-52.749-7.668-41.427 0-86.565 22.819-86.565 22.819zM754.682 730.645l11.328-155.432c0 0 56.474 15.151 120.557 64.343v159.172c-71.514-56.861-131.885-68.083-131.885-68.083zM777.344 431.191c0 0 56.467 11.222 109.222 41.523v-170.582c-56.467-26.371-97.894-34.044-97.894-34.044l-11.328 163.103z" />
<glyph unicode="&#xe958;" glyph-name="flatbed-van-b-g" horiz-adv-x="2645" d="M2304-85.333c-93.867 0-170.667 76.8-170.667 170.667s76.8 170.667 170.667 170.667c93.867 0 170.667-76.8 170.667-170.667s-76.8-170.667-170.667-170.667zM2304 170.667c-46.933 0-85.333-38.4-85.333-85.333s38.4-85.333 85.333-85.333c46.933 0 85.333 38.4 85.333 85.333s-38.4 85.333-85.333 85.333zM725.333-85.333c-93.867 0-170.667 76.8-170.667 170.667s76.8 170.667 170.667 170.667c93.867 0 170.667-76.8 170.667-170.667s-76.8-170.667-170.667-170.667zM725.333 170.667c-46.933 0-85.333-38.4-85.333-85.333s38.4-85.333 85.333-85.333c46.933 0 85.333 38.4 85.333 85.333s-38.4 85.333-85.333 85.333zM2560 42.667h-128c-25.6 0-42.667 17.067-42.667 42.667s17.067 42.667 42.667 42.667h128v204.8c0 17.067-12.8 34.133-29.867 38.4l-166.4 55.467c-12.8 4.267-21.333 12.8-25.6 25.6l-85.333 251.733c-12.8 34.133-42.667 59.733-81.067 59.733h-251.733c-25.6 0-42.667-17.067-42.667-42.667v-469.333c0-25.6-17.067-42.667-42.667-42.667h-170.667c-25.6 0-42.667 17.067-42.667 42.667s17.067 42.667 42.667 42.667h128v426.666c0 72.533 55.467 128 128 128h251.733c72.533 0 136.533-46.934 162.133-115.2l76.8-230.399 149.333-51.2c51.2-17.067 89.6-68.267 89.6-119.467v-204.8c-4.267-46.933-42.667-85.333-89.6-85.333zM2176 42.667h-1322.667c-25.6 0-42.667 17.067-42.667 42.667s17.067 42.667 42.667 42.667h1322.667c25.6 0 42.667-17.067 42.667-42.667s-17.067-42.667-42.667-42.667zM1664 213.334c-25.6 0-42.667 17.067-42.667 42.667v170.667h-1536v-85.333c0-25.6 17.067-42.667 42.667-42.667h1365.333c25.6 0 42.667-17.067 42.667-42.667s-17.067-42.667-42.667-42.667h-1365.333c-72.533 0-128 55.467-128 128v128c0 25.6 17.067 42.667 42.667 42.667h1621.333c25.6 0 42.667-17.067 42.667-42.667v-213.333c0-21.333-17.067-42.667-42.667-42.667zM2410.667 413.867l-328.533 89.6c-17.067 4.267-29.867 21.333-29.867 42.666v93.867c0 25.6 17.067 42.667 42.667 42.667h213.333l102.4-268.8zM2560 213.334c-12.8 0-21.333 4.267-29.867 12.8s-12.8 17.067-12.8 29.867c0 12.8 4.267 21.333 12.8 29.867 17.067 17.067 42.667 17.067 59.733 0 8.533-8.533 12.8-17.067 12.8-29.867s-4.267-21.333-12.8-29.867c-8.533-8.533-17.067-12.8-29.867-12.8zM1877.333 512c-25.6 0-42.667 17.067-42.667 42.667v85.333c0 25.6 17.067 42.667 42.667 42.667s42.667-17.067 42.667-42.667v-85.333c0-21.333-17.067-42.667-42.667-42.667z" />
<glyph unicode="&#xe959;" glyph-name="flatbed-van-m-g" horiz-adv-x="1579" d="M1280-85.333c-93.867 0-170.667 76.8-170.667 170.667s76.8 170.667 170.667 170.667c93.867 0 170.667-76.8 170.667-170.667s-76.8-170.667-170.667-170.667zM1280 170.667c-46.933 0-85.333-38.4-85.333-85.333s38.4-85.333 85.333-85.333c46.933 0 85.333 38.4 85.333 85.333s-38.4 85.333-85.333 85.333zM426.667-85.333c-93.867 0-170.667 76.8-170.667 170.667s76.8 170.667 170.667 170.667c93.867 0 170.667-76.8 170.667-170.667s-76.8-170.667-170.667-170.667zM426.667 170.667c-46.933 0-85.333-38.4-85.333-85.333s38.4-85.333 85.333-85.333c46.933 0 85.333 38.4 85.333 85.333s-38.4 85.333-85.333 85.333zM1493.333 42.667h-85.333c-25.6 0-42.667 17.067-42.667 42.667s17.067 42.667 42.667 42.667h85.333v256l-128 251.733c-12.8 29.867-42.667 46.934-76.8 46.934h-221.867c-25.6 0-42.667-17.067-42.667-42.667v-384c0-25.6-17.067-42.667-42.667-42.667h-170.667c-25.6 0-42.667 17.067-42.667 42.667v170.667h-682.667v-85.333c0-25.6 17.067-42.667 42.667-42.667h512c25.6 0 42.667-17.067 42.667-42.667s-17.067-42.667-42.667-42.667h-512c-72.533 0-128 55.467-128 128v128c0 25.6 17.067 42.667 42.667 42.667h768c25.6 0 42.667-17.067 42.667-42.667v-170.667h85.333v341.333c0 72.533 55.467 128 128 128h221.867c64 0 123.733-34.134 153.6-93.867l136.533-260.266c4.267-4.267 4.267-12.8 4.267-21.333v-268.8c-4.267-42.667-42.667-81.067-89.6-81.067zM1152 42.667h-597.333c-25.6 0-42.667 17.067-42.667 42.667s17.067 42.667 42.667 42.667h597.333c25.6 0 42.667-17.067 42.667-42.667s-17.067-42.667-42.667-42.667zM1531.733 341.334l-209.067 85.333h-85.333c-25.6 0-42.667 17.067-42.667 42.667v85.333c0 25.6 17.067 42.667 42.667 42.667h192l102.4-256z" />
<glyph unicode="&#xe95a;" glyph-name="flatbed-van-s-g" horiz-adv-x="2176" d="M1834.667-85.333c-93.867 0-170.667 76.8-170.667 170.667s76.8 170.667 170.667 170.667c93.867 0 170.667-76.8 170.667-170.667s-76.8-170.667-170.667-170.667zM1834.667 170.667c-46.933 0-85.333-38.4-85.333-85.333s38.4-85.333 85.333-85.333c46.933 0 85.333 38.4 85.333 85.333s-38.4 85.333-85.333 85.333zM554.667-85.333c-93.867 0-170.667 76.8-170.667 170.667s76.8 170.667 170.667 170.667c93.867 0 170.667-76.8 170.667-170.667s-76.8-170.667-170.667-170.667zM554.667 170.667c-46.933 0-85.333-38.4-85.333-85.333s38.4-85.333 85.333-85.333c46.933 0 85.333 38.4 85.333 85.333s-38.4 85.333-85.333 85.333zM2090.667 42.667h-128c-25.6 0-42.667 17.067-42.667 42.667s17.067 42.667 42.667 42.667h128v217.6c0 17.067-8.533 29.867-21.333 38.4l-98.133 51.2c-8.533 4.267-12.8 12.8-17.067 21.333l-81.067 179.198c-12.8 29.867-42.667 51.201-76.8 51.201h-260.267c-25.6 0-42.667-17.067-42.667-42.667v-383.999c0-25.6-17.067-42.667-42.667-42.667h-170.667c-25.6 0-42.667 17.067-42.667 42.667s17.067 42.667 42.667 42.667h128v341.332c0 72.533 55.467 128 128 128h260.267c68.267 0 128-38.401 153.6-102.401l72.533-166.398 85.333-46.933c42.667-21.333 68.267-64 68.267-110.933v-217.6c0-46.933-38.4-85.333-85.333-85.333zM1706.667 42.667h-1024c-25.6 0-42.667 17.067-42.667 42.667s17.067 42.667 42.667 42.667h1024c25.6 0 42.667-17.067 42.667-42.667s-17.067-42.667-42.667-42.667zM1280 213.334c-25.6 0-42.667 17.067-42.667 42.667v170.667h-1152v-85.333c0-25.6 17.067-42.667 42.667-42.667h981.333c25.6 0 42.667-17.067 42.667-42.667s-17.067-42.667-42.667-42.667h-981.333c-72.533 0-128 55.467-128 128v128c0 25.6 17.067 42.667 42.667 42.667h1237.333c25.6 0 42.667-17.067 42.667-42.667v-213.333c0-21.333-17.067-42.667-42.667-42.667zM2133.333 213.334h-42.667c-25.6 0-42.667 17.067-42.667 42.667s17.067 42.667 42.667 42.667h42.667c25.6 0 42.667-17.067 42.667-42.667s-17.067-42.667-42.667-42.667zM2069.333 426.667h-320c-25.6 0-42.667 17.067-42.667 42.667v85.332c0 25.6 17.067 42.667 42.667 42.667h170.667l149.333-170.665z" />
<glyph unicode="&#xe95b;" glyph-name="fold-map" d="M512 938.667c-282.77 0-512-229.23-512-512s229.23-512 512-512 512 229.23 512 512-229.23 512-512 512zM622.889 186.059l-47.82-47.662-287.332 288.271 287.332 288.271 47.82-47.662-239.825-240.608 239.825-240.608z" />
<glyph unicode="&#xe95c;" glyph-name="folder" d="M213.333 725.334c-23.564 0-42.667-19.103-42.667-42.667v-512c0-23.565 19.103-42.667 42.667-42.667h597.333c23.565 0 42.667 19.102 42.667 42.667v329.954c0 23.566-19.102 42.668-42.667 42.668h-297.015c-41.677 0-80.738 20.288-104.71 54.377l-77.021 109.542c-7.99 11.363-21.012 18.126-34.903 18.126h-83.684zM85.333 682.667c0 70.692 57.308 128 128 128h83.684c41.673 0 80.738-20.287 104.708-54.377l77.020-109.541c7.991-11.363 21.013-18.126 34.906-18.126h297.015c70.694 0 128-57.307 128-128.001v-329.954c0-70.694-57.306-128-128-128h-597.333c-70.692 0-128 57.306-128 128v512zM810.667 682.667h-448v85.333h448c70.694 0 128-57.308 128-128v-384h-85.333v384c0 23.564-19.102 42.667-42.667 42.667zM341.333 384h128v-85.333h-128v85.333zM298.667 469.334c-23.564 0-42.667-19.102-42.667-42.667v-170.667c0-23.565 19.103-42.667 42.667-42.667h213.333c23.565 0 42.667 19.102 42.667 42.667v170.667c0 23.565-19.102 42.667-42.667 42.667h-213.333z" />
<glyph unicode="&#xe95d;" glyph-name="frame" d="M160 810.667c-52.75 0-96-43.25-96-96v-576c0-52.749 43.25-96 96-96h704c52.749 0 96 43.251 96 96v576c0 52.75-43.251 96-96 96h-704zM160 746.667h704c18.001 0 32-14 32-32v-576c0-18.001-13.999-32-32-32h-704c-18 0-32 13.999-32 32v576c0 18 14 32 32 32zM192 682.667v-512h640v512h-640zM256 618.667h512v-384h-512v384z" />
<glyph unicode="&#xe95e;" glyph-name="freezing" d="M533.342 896c23.561 0 42.667-19.103 42.667-42.667v-73.398l31.578 32.174c16.508 16.817 43.52 17.069 60.339 0.562 16.815-16.506 17.067-43.52 0.559-60.337l-92.476-94.22v-156.85l132.096 77.705 33.847 128.699c5.99 22.79 29.325 36.405 52.113 30.412s36.407-29.326 30.413-52.115l-11.989-45.594 61.884 36.404c20.314 11.948 46.464 5.168 58.411-15.143s5.167-46.461-15.142-58.409l-63.91-37.594 45.414-12.398c22.733-6.205 36.13-29.664 29.926-52.398s-29.666-36.13-52.395-29.922l-125.658 34.3-133.525-78.545 133.525-78.545 125.658 34.3c22.729 6.208 46.191-7.189 52.395-29.922s-7.194-46.191-29.926-52.399l-45.414-12.395 63.91-37.598c20.309-11.947 27.089-38.097 15.142-58.406-11.947-20.314-38.097-27.093-58.411-15.142l-61.884 36.403 11.989-45.594c5.995-22.793-7.625-46.123-30.413-52.117-22.788-5.99-46.123 7.625-52.113 30.413l-33.847 128.7-132.096 77.705v-156.851l92.476-94.221c16.508-16.815 16.256-43.827-0.559-60.335-16.819-16.508-43.831-16.256-60.339 0.563l-31.578 32.175v-73.399c0-23.565-19.106-42.667-42.667-42.667-23.565 0-42.667 19.102-42.667 42.667v73.399l-31.582-32.175c-16.503-16.819-43.52-17.071-60.336-0.563s-17.069 43.52-0.563 60.335l92.481 94.221v156.851l-132.1-77.705-33.846-128.7c-5.993-22.788-29.326-36.403-52.116-30.413-22.789 5.995-36.405 29.325-30.412 52.117l11.99 45.594-61.886-36.403c-20.311-11.951-46.461-5.171-58.409 15.142-11.948 20.309-5.168 46.46 15.143 58.406l63.91 37.598-45.417 12.395c-22.732 6.208-36.13 29.666-29.925 52.399s29.664 36.13 52.396 29.922l125.656-34.3 133.529 78.545-133.529 78.545-125.656-34.3c-22.732-6.208-46.191 7.189-52.396 29.922s7.192 46.192 29.925 52.398l45.417 12.398-63.91 37.594c-20.311 11.948-27.090 38.098-15.143 58.409s38.098 27.090 58.409 15.143l61.886-36.404-11.99 45.594c-5.993 22.789 7.622 46.122 30.412 52.115s46.122-7.622 52.116-30.412l33.846-128.699 132.1-77.705v156.85l-92.481 94.22c-16.506 16.817-16.254 43.831 0.563 60.337s43.833 16.254 60.336-0.562l31.582-32.174v73.398c0 23.564 19.102 42.667 42.667 42.667z" />
<glyph unicode="&#xe95f;" glyph-name="gantry-crane-sm" d="M800 618.667l128-554.669c0-49.408 96-53.331 96 0l-64 554.865c0 41.518-24.090 79.264-61.747 96.748l-137.421 63.803c-14.074 6.534-29.402 9.919-44.922 9.919h-407.822c-15.516 0-30.845-3.386-44.918-9.919l-137.422-63.803c-37.657-17.484-61.748-55.229-61.748-96.748l-64-554.865c0-53.331 96-53.331 96 0l128 554.669h576zM512 490.667h31.251v-128h-52.584c-23.564 0-42.667-19.103-42.667-42.667v-106.664c0-23.565 19.103-42.669 42.667-42.669h170.664c23.565 0 42.669 19.104 42.669 42.669v106.664c0 23.564-19.104 42.667-42.669 42.667h-53.331l0.749 128h31.251c31.584 0 64 32 64 64h-256c0-32 32-64 64-64z" />
<glyph unicode="&#xe960;" glyph-name="gantry-crane" d="M138.176 710.077l-84.031-50.719c-20.364-12.291-32.812-34.342-32.812-58.129 0-35.184 26.762-64.117 61.040-67.554l-18.307-402.769 63.934-2.906 18.424 405.333h57.766l-58.089-406.622c-1.597-11.183-18.102-10.010-18.102 1.289h-64c0-90.773 132.619-100.215 145.459-10.338l59.381 415.671h190.577c14.754-25.506 42.33-42.667 73.916-42.667h21.333v-106.667h-42.667c-23.565 0-42.667-19.102-42.667-42.667v-128c0-23.565 19.102-42.667 42.667-42.667h170.667c23.565 0 42.667 19.102 42.667 42.667v128c0 23.565-19.102 42.667-42.667 42.667h-42.667v106.667h21.333c31.586 0 59.162 17.161 73.916 42.667h19.913l59.379-415.671c12.838-89.869 145.459-80.444 145.459 10.338h-64c0-11.298-16.503-12.471-18.103-1.289l-58.086 406.622h57.766l18.363-404.040 0.060-1.293 63.936 2.906-18.308 402.769c34.278 3.437 61.039 32.37 61.039 67.554 0 23.786-12.446 45.838-32.811 58.129l-83.452 50.368-76.625 44.077c-16.179 9.301-34.513 14.196-53.171 14.196h-489.216c-18.66 0-36.994-4.895-53.17-14.196l-76.046-43.727zM661.333 554.667h-21.333v42.667c0 23.564-19.102 42.667-42.667 42.667s-42.667-19.103-42.667-42.667v-42.667h-21.333c-11.78 0-21.333 9.551-21.333 21.333s-9.553 21.333-21.333 21.333h-401.437c-2.152 0-3.896 1.744-3.896 3.896 0 1.365 0.714 2.63 1.883 3.336l83.45 50.368 75.457 43.388c6.471 3.721 13.804 5.679 21.268 5.679h489.216c7.462 0 14.797-1.958 21.269-5.679l75.456-43.388 83.452-50.368c1.169-0.705 1.882-1.971 1.882-3.336 0-2.152-1.745-3.896-3.895-3.896h-230.771c-11.78 0-21.333-9.551-21.333-21.333s-9.553-21.333-21.333-21.333zM533.333 234.667v85.333h128v-85.333h-128z" />
<glyph unicode="&#xe961;" glyph-name="gondola-car-dlinnobaznaya" horiz-adv-x="2560" d="M2474.667 128h-2389.333c-46.933 0-85.333 38.4-85.333 85.333v213.333c0 25.6 17.067 42.667 42.667 42.667h2304c25.6 0 42.667-17.067 42.667-42.667s-17.067-42.667-42.667-42.667h-2261.333v-170.667h2389.333v213.333c0 25.6 17.067 42.667 42.667 42.667s42.667-17.067 42.667-42.667v-213.333c0-46.933-38.4-85.333-85.333-85.333zM2261.333-85.333c-72.533 0-128 55.467-128 128s55.467 128 128 128c72.533 0 128-55.467 128-128s-55.467-128-128-128zM2261.333 85.334c-25.6 0-42.667-17.067-42.667-42.667s17.067-42.667 42.667-42.667c25.6 0 42.667 17.067 42.667 42.667s-17.067 42.667-42.667 42.667zM1920-85.333c-72.533 0-128 55.467-128 128s55.467 128 128 128c72.533 0 128-55.467 128-128s-55.467-128-128-128zM1920 85.334c-25.6 0-42.667-17.067-42.667-42.667s17.067-42.667 42.667-42.667c25.6 0 42.667 17.067 42.667 42.667s-17.067 42.667-42.667 42.667zM2176 85.334h-170.667v-85.333h170.667v85.333zM640-85.333c-72.533 0-128 55.467-128 128s55.467 128 128 128c72.533 0 128-55.467 128-128s-55.467-128-128-128zM640 85.334c-25.6 0-42.667-17.067-42.667-42.667s17.067-42.667 42.667-42.667c25.6 0 42.667 17.067 42.667 42.667s-17.067 42.667-42.667 42.667zM298.667-85.333c-72.533 0-128 55.467-128 128s55.467 128 128 128c72.533 0 128-55.467 128-128s-55.467-128-128-128zM298.667 85.334c-25.6 0-42.667-17.067-42.667-42.667s17.067-42.667 42.667-42.667c25.6 0 42.667 17.067 42.667 42.667s-17.067 42.667-42.667 42.667zM554.667 85.334h-170.667v-85.333h170.667v85.333zM1280 298.667c-25.6 0-42.667 17.067-42.667 42.667v85.333c0 25.6 17.067 42.667 42.667 42.667s42.667-17.067 42.667-42.667v-85.333c0-21.333-17.067-42.667-42.667-42.667zM1664 298.667c-25.6 0-42.667 17.067-42.667 42.667v85.333c0 25.6 17.067 42.667 42.667 42.667s42.667-17.067 42.667-42.667v-85.333c0-21.333-17.067-42.667-42.667-42.667zM2048 298.667c-25.6 0-42.667 17.067-42.667 42.667v85.333c0 25.6 17.067 42.667 42.667 42.667s42.667-17.067 42.667-42.667v-85.333c0-21.333-17.067-42.667-42.667-42.667zM512 298.667c-25.6 0-42.667 17.067-42.667 42.667v85.333c0 25.6 17.067 42.667 42.667 42.667s42.667-17.067 42.667-42.667v-85.333c0-21.333-17.067-42.667-42.667-42.667zM896 298.667c-25.6 0-42.667 17.067-42.667 42.667v85.333c0 25.6 17.067 42.667 42.667 42.667s42.667-17.067 42.667-42.667v-85.333c0-21.333-17.067-42.667-42.667-42.667z" />
<glyph unicode="&#xe962;" glyph-name="gondola-car-fitingovaya" horiz-adv-x="2304" d="M2218.667 128h-2133.333c-46.933 0-85.333 38.4-85.333 85.333v128c0 25.6 17.067 42.667 42.667 42.667h2048c25.6 0 42.667-17.067 42.667-42.667s-17.067-42.667-42.667-42.667h-2005.333v-85.333h2133.333v128c0 25.6 17.067 42.667 42.667 42.667s42.667-17.067 42.667-42.667v-128c0-46.933-38.4-85.333-85.333-85.333zM2005.333-85.333c-72.533 0-128 55.467-128 128s55.467 128 128 128c72.533 0 128-55.467 128-128s-55.467-128-128-128zM2005.333 85.334c-25.6 0-42.667-17.067-42.667-42.667s17.067-42.667 42.667-42.667c25.6 0 42.667 17.067 42.667 42.667s-17.067 42.667-42.667 42.667zM1664-85.333c-72.533 0-128 55.467-128 128s55.467 128 128 128c72.533 0 128-55.467 128-128s-55.467-128-128-128zM1664 85.334c-25.6 0-42.667-17.067-42.667-42.667s17.067-42.667 42.667-42.667c25.6 0 42.667 17.067 42.667 42.667s-17.067 42.667-42.667 42.667zM1920 85.334h-170.667v-85.333h170.667v85.333zM640-85.333c-72.533 0-128 55.467-128 128s55.467 128 128 128c72.533 0 128-55.467 128-128s-55.467-128-128-128zM640 85.334c-25.6 0-42.667-17.067-42.667-42.667s17.067-42.667 42.667-42.667c25.6 0 42.667 17.067 42.667 42.667s-17.067 42.667-42.667 42.667zM298.667-85.333c-72.533 0-128 55.467-128 128s55.467 128 128 128c72.533 0 128-55.467 128-128s-55.467-128-128-128zM298.667 85.334c-25.6 0-42.667-17.067-42.667-42.667s17.067-42.667 42.667-42.667c25.6 0 42.667 17.067 42.667 42.667s-17.067 42.667-42.667 42.667zM554.667 85.334h-170.667v-85.333h170.667v85.333z" />
<glyph unicode="&#xe963;" glyph-name="gondola-car-gluhodonnyj" horiz-adv-x="2261" d="M2176 128h-2133.333c-25.6 0-42.667 17.067-42.667 42.667v725.333c0 25.6 17.067 42.667 42.667 42.667s42.667-17.067 42.667-42.667v-682.667h2048v682.667c0 25.6 17.067 42.667 42.667 42.667s42.667-17.067 42.667-42.667v-725.333c0-21.333-17.067-42.667-42.667-42.667zM2005.333 768h-1962.667c-25.6 0-42.667 17.067-42.667 42.667s17.067 42.667 42.667 42.667h1962.667c25.6 0 42.667-17.067 42.667-42.667s-17.067-42.667-42.667-42.667zM896 42.667c-25.6 0-42.667 17.067-42.667 42.667v725.333c0 25.6 17.067 42.667 42.667 42.667s42.667-17.067 42.667-42.667v-725.333c0-21.333-17.067-42.667-42.667-42.667zM1322.667 42.667c-25.6 0-42.667 17.067-42.667 42.667v725.333c0 25.6 17.067 42.667 42.667 42.667s42.667-17.067 42.667-42.667v-725.333c0-21.333-17.067-42.667-42.667-42.667zM1749.333 128c-25.6 0-42.667 17.067-42.667 42.667v640c0 25.6 17.067 42.667 42.667 42.667s42.667-17.067 42.667-42.667v-640c0-21.333-17.067-42.667-42.667-42.667zM469.333 128c-25.6 0-42.667 17.067-42.667 42.667v640c0 25.6 17.067 42.667 42.667 42.667s42.667-17.067 42.667-42.667v-640c0-21.333-17.067-42.667-42.667-42.667zM1962.667-85.333c-72.533 0-128 55.467-128 128s55.467 128 128 128c72.533 0 128-55.467 128-128s-55.467-128-128-128zM1962.667 85.334c-25.6 0-42.667-17.067-42.667-42.667s17.067-42.667 42.667-42.667c25.6 0 42.667 17.067 42.667 42.667s-17.067 42.667-42.667 42.667zM1621.333-85.333c-72.533 0-128 55.467-128 128s55.467 128 128 128c72.533 0 128-55.467 128-128s-55.467-128-128-128zM1621.333 85.334c-25.6 0-42.667-17.067-42.667-42.667s17.067-42.667 42.667-42.667c25.6 0 42.667 17.067 42.667 42.667s-17.067 42.667-42.667 42.667zM1877.333 85.334h-170.667v-85.333h170.667v85.333zM597.333-85.333c-72.533 0-128 55.467-128 128s55.467 128 128 128c72.533 0 128-55.467 128-128s-55.467-128-128-128zM597.333 85.334c-25.6 0-42.667-17.067-42.667-42.667s17.067-42.667 42.667-42.667c25.6 0 42.667 17.067 42.667 42.667s-17.067 42.667-42.667 42.667zM256-85.333c-72.533 0-128 55.467-128 128s55.467 128 128 128c72.533 0 128-55.467 128-128s-55.467-128-128-128zM256 85.334c-25.6 0-42.667-17.067-42.667-42.667s17.067-42.667 42.667-42.667c25.6 0 42.667 17.067 42.667 42.667s-17.067 42.667-42.667 42.667zM512 85.334h-170.667v-85.333h170.667v85.333z" />
<glyph unicode="&#xe964;" glyph-name="gondola-car-lyukovoj" horiz-adv-x="2261" d="M1962.667-85.333c-72.533 0-128 55.467-128 128s55.467 128 128 128c72.533 0 128-55.467 128-128s-55.467-128-128-128zM1962.667 85.334c-25.6 0-42.667-17.067-42.667-42.667s17.067-42.667 42.667-42.667c25.6 0 42.667 17.067 42.667 42.667s-17.067 42.667-42.667 42.667zM1621.333-85.333c-72.533 0-128 55.467-128 128s55.467 128 128 128c72.533 0 128-55.467 128-128s-55.467-128-128-128zM1621.333 85.334c-25.6 0-42.667-17.067-42.667-42.667s17.067-42.667 42.667-42.667c25.6 0 42.667 17.067 42.667 42.667s-17.067 42.667-42.667 42.667zM1877.333 85.334h-170.667v-85.333h170.667v85.333zM597.333-85.333c-72.533 0-128 55.467-128 128s55.467 128 128 128c72.533 0 128-55.467 128-128s-55.467-128-128-128zM597.333 85.334c-25.6 0-42.667-17.067-42.667-42.667s17.067-42.667 42.667-42.667c25.6 0 42.667 17.067 42.667 42.667s-17.067 42.667-42.667 42.667zM256-85.333c-72.533 0-128 55.467-128 128s55.467 128 128 128c72.533 0 128-55.467 128-128s-55.467-128-128-128zM256 85.334c-25.6 0-42.667-17.067-42.667-42.667s17.067-42.667 42.667-42.667c25.6 0 42.667 17.067 42.667 42.667s-17.067 42.667-42.667 42.667zM512 85.334h-170.667v-85.333h170.667v85.333zM2005.333 298.667c-25.6 0-42.667 17.067-42.667 42.667v554.667c0 25.6 17.067 42.667 42.667 42.667s42.667-17.067 42.667-42.667v-554.667c0-21.333-17.067-42.667-42.667-42.667zM213.333 298.667c-25.6 0-42.667 17.067-42.667 42.667v554.667c0 25.6 17.067 42.667 42.667 42.667s42.667-17.067 42.667-42.667v-554.667c0-21.333-17.067-42.667-42.667-42.667zM1250.133-0h-324.267c-38.4 0-68.267 21.333-81.067 59.733l-21.333 68.267h-780.8c-25.6 0-42.667 17.067-42.667 42.667v725.333c0 25.6 17.067 42.667 42.667 42.667h1962.667c25.6 0 42.667-17.067 42.667-42.667s-17.067-42.667-42.667-42.667h-1920v-640h738.133c38.4 0 68.267-21.333 81.067-59.733l21.333-68.267h324.267l21.333 68.267c12.8 34.133 42.667 59.733 81.067 59.733h780.8v682.667c0 25.6 17.067 42.667 42.667 42.667s42.667-17.067 42.667-42.667v-725.333c0-25.6-17.067-42.667-42.667-42.667h-823.467l-21.333-68.267c-12.8-34.133-46.933-59.733-81.067-59.733zM1280 42.667h-384l-85.333 170.667h554.667l-85.333-170.667z" />
<glyph unicode="&#xe965;" glyph-name="gondola-car-universalnaya" horiz-adv-x="2304" d="M2218.667 128h-2133.333c-46.933 0-85.333 38.4-85.333 85.333v213.333c0 25.6 17.067 42.667 42.667 42.667h2048c25.6 0 42.667-17.067 42.667-42.667s-17.067-42.667-42.667-42.667h-2005.333v-170.667h2133.333v213.333c0 25.6 17.067 42.667 42.667 42.667s42.667-17.067 42.667-42.667v-213.333c0-46.933-38.4-85.333-85.333-85.333zM2005.333-85.333c-72.533 0-128 55.467-128 128s55.467 128 128 128c72.533 0 128-55.467 128-128s-55.467-128-128-128zM2005.333 85.334c-25.6 0-42.667-17.067-42.667-42.667s17.067-42.667 42.667-42.667c25.6 0 42.667 17.067 42.667 42.667s-17.067 42.667-42.667 42.667zM1664-85.333c-72.533 0-128 55.467-128 128s55.467 128 128 128c72.533 0 128-55.467 128-128s-55.467-128-128-128zM1664 85.334c-25.6 0-42.667-17.067-42.667-42.667s17.067-42.667 42.667-42.667c25.6 0 42.667 17.067 42.667 42.667s-17.067 42.667-42.667 42.667zM1920 85.334h-170.667v-85.333h170.667v85.333zM640-85.333c-72.533 0-128 55.467-128 128s55.467 128 128 128c72.533 0 128-55.467 128-128s-55.467-128-128-128zM640 85.334c-25.6 0-42.667-17.067-42.667-42.667s17.067-42.667 42.667-42.667c25.6 0 42.667 17.067 42.667 42.667s-17.067 42.667-42.667 42.667zM298.667-85.333c-72.533 0-128 55.467-128 128s55.467 128 128 128c72.533 0 128-55.467 128-128s-55.467-128-128-128zM298.667 85.334c-25.6 0-42.667-17.067-42.667-42.667s17.067-42.667 42.667-42.667c25.6 0 42.667 17.067 42.667 42.667s-17.067 42.667-42.667 42.667zM554.667 85.334h-170.667v-85.333h170.667v85.333zM1109.333 298.667c-25.6 0-42.667 17.067-42.667 42.667v85.333c0 25.6 17.067 42.667 42.667 42.667s42.667-17.067 42.667-42.667v-85.333c0-21.333-17.067-42.667-42.667-42.667zM1493.333 298.667c-25.6 0-42.667 17.067-42.667 42.667v85.333c0 25.6 17.067 42.667 42.667 42.667s42.667-17.067 42.667-42.667v-85.333c0-21.333-17.067-42.667-42.667-42.667zM1877.333 298.667c-25.6 0-42.667 17.067-42.667 42.667v85.333c0 25.6 17.067 42.667 42.667 42.667s42.667-17.067 42.667-42.667v-85.333c0-21.333-17.067-42.667-42.667-42.667zM341.333 298.667c-25.6 0-42.667 17.067-42.667 42.667v85.333c0 25.6 17.067 42.667 42.667 42.667s42.667-17.067 42.667-42.667v-85.333c0-21.333-17.067-42.667-42.667-42.667zM725.333 298.667c-25.6 0-42.667 17.067-42.667 42.667v85.333c0 25.6 17.067 42.667 42.667 42.667s42.667-17.067 42.667-42.667v-85.333c0-21.333-17.067-42.667-42.667-42.667z" />
<glyph unicode="&#xe966;" glyph-name="graph" d="M128 810.667v-682.667c0-46.639 38.696-85.333 85.333-85.333h682.667v85.333h-682.667v682.667h-85.333zM824.333 669.25l-184.832-183.085-127.753 122.168-242.832-236.416 59.5-61.167 183.835 178.999 128.247-122.581 243.917 241.498-60.083 60.584z" />
<glyph unicode="&#xe967;" glyph-name="group-list" d="M256 426.667c0 23.565 19.103 42.667 42.667 42.667h426.667c23.565 0 42.667-19.102 42.667-42.667s-19.102-42.667-42.667-42.667h-426.667c-23.564 0-42.667 19.102-42.667 42.667zM256 256c0 23.565 19.103 42.667 42.667 42.667h426.667c23.565 0 42.667-19.102 42.667-42.667s-19.102-42.667-42.667-42.667h-426.667c-23.564 0-42.667 19.102-42.667 42.667zM256 597.334c0 23.564 19.103 42.667 42.667 42.667h426.667c23.565 0 42.667-19.103 42.667-42.667s-19.102-42.667-42.667-42.667h-426.667c-23.564 0-42.667 19.103-42.667 42.667z" />
</font>
</defs>
</svg>
